<svg width="239" height="38" xmlns="http://www.w3.org/2000/svg">
    <g fill="none" fill-rule="evenodd">
        <g fill="#FFF">
            <path d="M71.71 7.468c2.3 0 4.302.372 6.005 1.114 1.704.743 3.036 1.988 3.997 3.735.96 1.747 1.441 4.135 1.441 7.163 0 2.3-.393 4.324-1.18 6.071-.785 1.748-1.892 3.109-3.319 4.084-1.427.976-3.145 1.464-5.154 1.464-.407 0-1.034-.03-1.878-.088-.844-.058-1.733-.247-2.664-.567a5.862 5.862 0 0 1-1.049-.479V38h-7.076v-6.636l.48-.283c4.47-2.672 8.927-6.743 10.487-9.25l.127-.211 1.682 5.666.039.088c.209.386.813.464 1.164.064l1.348-1.499.07-.09a.887.887 0 0 0 .128-.416l-.107-6.876-.011-.047c3.131-2.882 3.243-4.166 2.546-4.996-.697-.831-1.964-.957-5.36 1.61l-.03-.004-6.786-1.27-.104-.011a.739.739 0 0 0-.429.118l-1.71 1.066-.09.064c-.395.32-.363.926.091 1.153l4.744 2.414-1.593.727a82.45 82.45 0 0 1-6.685 3.737V13.103c0-.961.276-1.79.83-2.49.552-.699 1.317-1.281 2.292-1.747.976-.466 2.126-.815 3.451-1.048a24.874 24.874 0 0 1 4.302-.35zM128.74 0v31.316h-7.358V4.74c0-2.617 1.946-4.739 7.358-4.739zm-11.422 0v31.316h-7.358V4.74c0-2.617 1.945-4.739 7.358-4.739zM96.582 6.927c2.512 0 4.546.538 6.102 1.615 1.555 1.077 2.707 2.677 3.454 4.8l.096.28c.683 2.072 1.01 4.58.981 7.528H92.61l.017.063c.241.877.625 1.61 1.152 2.202.972 1.092 2.58 1.638 4.823 1.638.807 0 1.615-.097 2.423-.292a18.328 18.328 0 0 0 2.265-.695c.703-.27 1.279-.479 1.728-.628v6.28l-.458.165a29.01 29.01 0 0 1-3.11.868c-1.33.299-2.908.449-4.732.449-2.334 0-4.39-.472-6.17-1.414a10.089 10.089 0 0 1-4.15-4.038c-.987-1.75-1.48-3.82-1.48-6.214 0-3.978 1.002-7.073 3.006-9.287 2.004-2.213 4.89-3.32 8.659-3.32zm46.667 0c2.573 0 4.741.411 6.506 1.234 1.764.822 3.103 2.124 4.015 3.903.913 1.78 1.369 4.09 1.369 6.932 0 4.038-1.025 7.081-3.074 9.13-2.049 2.05-4.987 3.074-8.816 3.074-3.918 0-6.857-1.017-8.816-3.051-1.96-2.034-2.939-5.085-2.939-9.153 0-4.367.987-7.47 2.961-9.31 1.975-1.84 4.906-2.759 8.794-2.759zM41.348 7.6c1.63 0 2.89.117 3.778.35.888.233 1.565.524 2.03.873v5.198c-.465-.116-1.076-.218-1.834-.306a30.012 30.012 0 0 0-2.402-.174c-.844-.03-1.638-.03-2.38 0-.743.029-1.333.073-1.77.13v16.3a94.74 94.74 0 0 1-4.195.473H31.52V10.745c.437-.407 1.18-.851 2.227-1.332 1.049-.48 2.25-.903 3.604-1.267a15.352 15.352 0 0 1 3.997-.546zM31.43 1.31v6.028h-7.906v23.107h-1.781c-2.243-.253-4.28-.655-6.081-1.205V7.337H7.887V1.31H31.43zm25.208 7.339.065 16.384a71.424 71.424 0 0 1-7.316 2.68V8.649h7.25zm86.611 4.067c-.987 0-1.81.187-2.467.56-.658.374-1.145 1.01-1.459 1.907-.314.898-.47 2.169-.47 3.814 0 2.213.358 3.821 1.076 4.823.718 1.002 1.825 1.503 3.32 1.503.957 0 1.772-.232 2.445-.695.673-.464 1.19-1.16 1.548-2.087.36-.927.539-2.108.539-3.544 0-1.645-.18-2.924-.539-3.836-.359-.912-.875-1.548-1.548-1.907s-1.488-.538-2.445-.538zm-47.026-.225c-.718 0-1.376.202-1.974.606-.598.404-1.07 1.054-1.413 1.952l-.063.172a7.31 7.31 0 0 0-.29 1.186l-.033.213h7.435l-.006-.052c-.15-1.147-.403-2.02-.762-2.618-.583-.973-1.548-1.459-2.894-1.459zM56.725.087v5.372H49.3V.087h7.425z"/>
            <path d="M4.403 14.738c-.41 1.221-.685 2.588-.819 4.115C2.318 33.266 22.659 35.34 41.038 32.412c11.01-1.754 21.593-7.106 27.893-11.02-.948 2.661-12.541 13.02-32.1 15.797C17.053 40 0 35.504 0 23.631c0-3.878 1.587-6.765 4.403-8.893z"/>
        </g>
        <text font-family="Ubuntu-Medium, Ubuntu" font-size="14" font-weight="400" fill="#FFF">
                    <tspan x="172" y="24">Network</tspan>
                </text>
        <path d="M174.5 8h52c6.351 0 11.5 5.149 11.5 11.5S232.851 31 226.5 31h-52c-6.351 0-11.5-5.149-11.5-11.5S168.149 8 174.5 8z" stroke="#FFF"/>
    </g>
</svg>
