<?xml version="1.0" standalone="no"?>
<!DOCTYPE svg PUBLIC "-//W3C//DTD SVG 1.1//EN" "http://www.w3.org/Graphics/SVG/1.1/DTD/svg11.dtd" >
<svg xmlns="http://www.w3.org/2000/svg">
<metadata>Generated by IcoMoon</metadata>
<defs>
<font id="icomoon" horiz-adv-x="1024">
<font-face units-per-em="1024" ascent="960" descent="-64" />
<missing-glyph horiz-adv-x="1024" />
<glyph unicode="&#x20;" horiz-adv-x="512" d="" />
<glyph unicode="&#xe900;" glyph-name="phone" d="M282.453 499.627c61.44-120.747 160.427-219.307 281.173-281.173l93.867 93.867c11.52 11.52 28.587 15.36 43.52 10.24 47.787-15.787 99.413-24.32 152.32-24.32 23.467 0 42.667-19.2 42.667-42.667v-148.907c0-23.467-19.2-42.667-42.667-42.667-400.64 0-725.333 324.693-725.333 725.333 0 23.467 19.2 42.667 42.667 42.667h149.333c23.467 0 42.667-19.2 42.667-42.667 0-53.333 8.533-104.533 24.32-152.32 4.693-14.933 1.28-31.573-10.667-43.52l-93.867-93.867z" />
<glyph unicode="&#xe901;" glyph-name="pinterest" d="M512 891.6c-245 0-443.6-198.6-443.6-443.6 0-188 117-348.4 282-413-3.8 35-7.4 89 1.6 127.2 8 34.6 52 220.4 52 220.4s-13.2 26.6-13.2 65.8c0 61.6 35.8 107.8 80.2 107.8 37.8 0 56.2-28.4 56.2-62.4 0-38-24.2-95-36.8-147.6-10.6-44.2 22-80.2 65.6-80.2 78.8 0 139.4 83.2 139.4 203.2 0 106.2-76.4 180.4-185.2 180.4-126.2 0-200.2-94.6-200.2-192.6 0-38.2 14.6-79 33-101.2 3.6-4.4 4.2-8.2 3-12.8-3.4-14-10.8-44.2-12.4-50.4-2-8.2-6.4-9.8-14.8-6-55.4 25.8-90 106.8-90 171.8 0 140 101.6 268.4 293 268.4 153.8 0 273.4-109.6 273.4-256.2 0-152.8-96.4-276-230.2-276-45 0-87.2 23.4-101.6 51 0 0-22.2-84.6-27.6-105.4-10-38.6-37-86.8-55.2-116.2 41.6-12.8 85.6-19.8 131.4-19.8 245 0 443.6 198.6 443.6 443.6 0 245.2-198.6 443.8-443.6 443.8z" />
<glyph unicode="&#xe902;" glyph-name="TikTok-_1" d="M490.193 826.69c-1.801-0.19-8.628-0.853-15.076-1.327-71.111-6.163-142.601-35.366-201.102-82.11-16.403-13.084-44.184-40.865-57.268-57.268-46.744-58.406-74.050-125.25-82.299-201.007-1.517-14.127-1.517-59.828 0-73.956 8.249-75.757 35.556-142.601 82.299-201.007 13.084-16.403 40.865-44.184 57.268-57.268 58.406-46.744 125.25-74.050 201.007-82.299 14.127-1.517 59.828-1.517 73.956 0 75.757 8.249 142.601 35.556 201.007 82.299 16.403 13.084 44.184 40.865 57.268 57.268 41.908 52.433 68.741 112.735 79.17 178.252 3.413 21.333 4.267 33.28 4.267 59.733s-0.853 38.4-4.267 59.733c-10.43 65.517-37.262 125.819-79.17 178.252-13.084 16.403-40.865 44.184-57.268 57.268-58.027 46.364-125.345 74.050-199.585 82.11-9.576 1.043-54.139 2.086-60.207 1.327zM581.025 694.519c0.853-8.059 3.319-17.73 4.741-18.963 0.853-0.759 3.224-5.594 5.215-10.714 4.456-11.093 10.714-21.713 21.523-35.935 10.335-13.653 14.412-17.636 24.936-24.557 15.834-10.43 31.479-16.498 50.441-19.627l10.43-1.801 0.569-10.809c0.379-5.973 0.664-23.514 0.759-39.159l0.095-28.35-15.36 0.569c-16.024 0.569-23.419 1.801-36.314 5.973-10.524 3.413-26.643 11.852-35.84 18.679s-21.523 19.058-26.738 26.643l-3.793 5.499-0.474-107.899c-0.569-107.71-0.569-107.994-2.75-117.476-8.154-36.219-27.307-66.276-55.846-87.704-49.873-37.452-117.381-38.779-169.434-3.413-10.24 6.921-25.695 21.997-29.393 28.539-1.422 2.655-5.215 8.723-8.249 13.559-15.644 24.557-23.514 50.536-23.514 77.938 0 22.661 4.741 42.098 15.644 64 18.584 37.357 53.096 65.138 93.772 75.378 11.662 2.939 32.616 5.31 37.926 4.361l3.413-0.664v-10.809c0-6.163 0.379-10.999 0.948-11.378s0.948-9.387 0.948-23.988v-23.419l-8.818 0.284c-21.428 0.853-44.468-9.956-58.121-27.117-5.31-6.732-12.136-20.385-14.317-28.634-2.465-9.481-2.276-27.686 0.474-37.357 2.844-10.050 8.439-20.575 15.17-28.539 2.939-3.603 6.921-8.439 8.723-10.809 3.887-5.025 12.99-10.24 24.178-14.033 7.016-2.37 8.818-2.56 23.23-2.655 13.559 0 16.593 0.284 23.135 2.181 21.618 6.258 39.917 21.428 49.019 40.486 7.68 15.929 7.016-1.801 7.301 191.81l0.19 172.753 32.996-0.19 32.901-0.284 0.284-2.37z" />
<glyph unicode="&#xe903;" glyph-name="uniE903" horiz-adv-x="573" d="M419.156 449.922h-92.942v-366.25h-137.802v366.25h-65.532v129.379h65.532v83.717c0 59.87 25.734 153.622 139.023 153.622l102.074-0.486v-125.584h-74.061c-12.159 0-29.234-6.708-29.234-35.267v-76.128h104.971l-12.029-129.253z" />
<glyph unicode="&#xe904;" glyph-name="uniE904" horiz-adv-x="573" d="M419.156 449.922h-92.942v-366.25h-137.802v366.25h-65.532v129.379h65.532v83.717c0 59.87 25.734 153.622 139.023 153.622l102.074-0.486v-125.584h-74.061c-12.159 0-29.234-6.708-29.234-35.267v-76.128h104.971l-12.029-129.253z" />
<glyph unicode="&#xe905;" glyph-name="uniE905" horiz-adv-x="1067" d="M523.765 830.379l101.881-1.657c16.978-0.318 33.955-0.689 50.93-1.161 44.226-1.238 87.066-9.082 125.494-32.469 50.385-30.62 81.178-75.796 91.118-133.196 5.96-34.318 7.995-69.622 8.536-104.532 1.134-75.061 0.702-150.193-0.126-225.271-0.432-39.397-1.747-78.973-14.856-116.863-25.445-73.499-77.162-118.137-153.045-132.532-34.286-6.479-69.833-7.969-104.857-8.508-75.055-1.131-150.128-0.682-225.183 0.126-39.544 0.413-79.233 1.723-117.283 14.682-73.849 25.164-118.651 76.748-133.291 152.293-6.609 34.138-8.049 69.586-8.59 104.514-1.134 75.061-0.702 150.175 0.126 225.253 0.432 39.415 1.747 78.973 14.874 116.881 25.427 73.481 77.162 118.119 153.045 132.496 34.268 6.497 69.815 7.215 104.857 8.579 35.403 1.382 70.895 0.305 106.352 0.305 0 0.359 0.018 0.718 0.018 1.059zM524.966 645.68c-108.981 0.054-196.551-85.578-196.606-192.246-0.036-109.45 85.86-195.962 194.553-195.979 108.243-0.018 194.931 86.225 194.931 193.933 0 107.152-86.418 194.221-192.878 194.292zM523.184 577.512c69.239 0.036 126.34-56.968 126.268-126.016-0.054-69.102-57.156-125.945-126.43-125.873-69.311 0.072-126.34 56.986-126.268 126.034 0.072 69.12 57.048 125.819 126.43 125.855zM725.19 698.684c-25.084-0.126-45.289-20.138-45.505-45.105-0.216-24.895 20.619-45.787 45.829-45.948 25.084-0.144 45.559 20.479 45.523 45.894-0.036 25.684-19.952 45.284-45.847 45.158z" />
<glyph unicode="&#xe906;" glyph-name="uniE906" horiz-adv-x="1067" d="M523.765 830.379l101.881-1.657c16.978-0.318 33.955-0.689 50.93-1.161 44.226-1.238 87.066-9.082 125.494-32.469 50.385-30.62 81.178-75.796 91.118-133.196 5.96-34.318 7.995-69.622 8.536-104.532 1.134-75.061 0.702-150.193-0.126-225.271-0.432-39.397-1.747-78.973-14.856-116.863-25.445-73.499-77.162-118.137-153.045-132.532-34.286-6.479-69.833-7.969-104.857-8.508-75.055-1.131-150.128-0.682-225.183 0.126-39.544 0.413-79.233 1.723-117.283 14.682-73.849 25.164-118.651 76.748-133.291 152.293-6.609 34.138-8.049 69.586-8.59 104.514-1.134 75.061-0.702 150.175 0.126 225.253 0.432 39.415 1.747 78.973 14.874 116.881 25.427 73.481 77.162 118.119 153.045 132.496 34.268 6.497 69.815 7.215 104.857 8.579 35.403 1.382 70.895 0.305 106.352 0.305 0 0.359 0.018 0.718 0.018 1.059zM524.966 645.68c-108.981 0.054-196.551-85.578-196.606-192.246-0.036-109.45 85.86-195.962 194.553-195.979 108.243-0.018 194.931 86.225 194.931 193.933 0 107.152-86.418 194.221-192.878 194.292zM523.184 577.512c69.239 0.036 126.34-56.968 126.268-126.016-0.054-69.102-57.156-125.945-126.43-125.873-69.311 0.072-126.34 56.986-126.268 126.034 0.072 69.12 57.048 125.819 126.43 125.855zM725.19 698.684c-25.084-0.126-45.289-20.138-45.505-45.105-0.216-24.895 20.619-45.787 45.829-45.948 25.084-0.144 45.559 20.479 45.523 45.894-0.036 25.684-19.952 45.284-45.847 45.158z" />
<glyph unicode="&#xe907;" glyph-name="uniE907" horiz-adv-x="1109" d="M786.769 55.695v272.81c0 71.483-29.354 120.309-93.867 120.309-48.917 0-76.287-32.848-89.008-64.749-4.932-11.301-4.186-27.043-4.186-42.93v-285.44h-185.058c0 0 2.311 483.546 0 527.367h185.058v-82.729c10.974 36.16 70.118 87.77 164.494 87.77 117.142 0 209.207-75.887 209.207-239.161v-293.247h-186.641zM227.574 649.031h-1.128c-59.745 0-98.453 40.382-98.453 91.464 0 51.992 39.854 91.501 100.727 91.501 60.746 0 98.271-39.345 99.417-91.41 0-51.101-38.671-91.555-100.564-91.555v0zM149.175 55.695h164.858v527.367h-164.858v-527.367z" />
<glyph unicode="&#xe908;" glyph-name="uniE908" horiz-adv-x="1109" d="M786.769 55.695v272.81c0 71.483-29.354 120.309-93.867 120.309-48.917 0-76.287-32.848-89.008-64.749-4.932-11.301-4.186-27.043-4.186-42.93v-285.44h-185.058c0 0 2.311 483.546 0 527.367h185.058v-82.729c10.974 36.16 70.118 87.77 164.494 87.77 117.142 0 209.207-75.887 209.207-239.161v-293.247h-186.641zM227.574 649.031h-1.128c-59.745 0-98.453 40.382-98.453 91.464 0 51.992 39.854 91.501 100.727 91.501 60.746 0 98.271-39.345 99.417-91.41 0-51.101-38.671-91.555-100.564-91.555v0zM149.175 55.695h164.858v527.367h-164.858v-527.367z" />
<glyph unicode="&#xe909;" glyph-name="tick" horiz-adv-x="1303" d="M434.424-63.069l-434.424 434.425 153.135 153.135 281.29-280.204 715.714 715.714 153.135-154.221z" />
<glyph unicode="&#xe90a;" glyph-name="uniE90A" horiz-adv-x="1202" d="M972.794 637.193c0.335-8.233 0.52-16.617 0.52-24.85 0-253.546-192.93-545.826-545.725-545.826-108.387 0-209.178 31.825-294.024 86.187 14.89-1.727 30.165-2.75 45.642-2.75 89.976 0 172.558 30.702 238.321 82.179-83.973 1.492-154.834 56.994-179.198 133.304 11.704-2.331 23.659-3.538 36.118-3.538 17.472 0 34.357 2.297 50.454 6.69-87.813 17.757-153.811 95.174-153.811 188.135v2.498c25.856-14.437 55.351-23.073 86.807-24.045-51.377 34.458-85.315 93.162-85.315 159.68 0 35.112 9.507 68.144 26.024 96.415 94.57-116 235.957-192.427 395.419-200.375-3.354 13.934-4.98 28.589-4.98 43.663 0 105.889 85.818 191.874 191.74 191.874 55.216 0 105.034-23.374 140.062-60.632 43.697 8.669 84.728 24.598 121.768 46.564-14.152-44.82-44.636-82.414-84.325-106.073 38.901 4.628 75.874 14.974 110.232 30.216-25.739-38.566-58.235-72.286-95.727-99.316z" />
<glyph unicode="&#xe90b;" glyph-name="uniE90B" horiz-adv-x="1202" d="M972.794 637.193c0.335-8.233 0.52-16.617 0.52-24.85 0-253.546-192.93-545.826-545.725-545.826-108.387 0-209.178 31.825-294.024 86.187 14.89-1.727 30.165-2.75 45.642-2.75 89.976 0 172.558 30.702 238.321 82.179-83.973 1.492-154.834 56.994-179.198 133.304 11.704-2.331 23.659-3.538 36.118-3.538 17.472 0 34.357 2.297 50.454 6.69-87.813 17.757-153.811 95.174-153.811 188.135v2.498c25.856-14.437 55.351-23.073 86.807-24.045-51.377 34.458-85.315 93.162-85.315 159.68 0 35.112 9.507 68.144 26.024 96.415 94.57-116 235.957-192.427 395.419-200.375-3.354 13.934-4.98 28.589-4.98 43.663 0 105.889 85.818 191.874 191.74 191.874 55.216 0 105.034-23.374 140.062-60.632 43.697 8.669 84.728 24.598 121.768 46.564-14.152-44.82-44.636-82.414-84.325-106.073 38.901 4.628 75.874 14.974 110.232 30.216-25.739-38.566-58.235-72.286-95.727-99.316z" />
<glyph unicode="&#xe90c;" glyph-name="uniE90C" horiz-adv-x="1303" d="M539.714 269.182v392.621l291.854-196.272-291.854-196.348zM1152.845 654.563c0 86.113-68.374 155.874-152.749 155.874h-716.386c-84.4 0-152.749-69.761-152.749-155.874v-418.034c0-86.062 68.349-155.874 152.749-155.874h716.386c84.376 0 152.749 69.812 152.749 155.874v418.034z" />
<glyph unicode="&#xe90d;" glyph-name="uniE90D" horiz-adv-x="788" d="M669.538 408.615v78.769c-60.652-0.788-121.698 29.538-160.295 72.074l-50.806 56.32c-6.695 7.483-14.966 13.391-24.025 17.723-0.394 0-0.394 0.394-0.788 0.394h-0.394c-13.785 7.877-29.538 11.815-46.868 10.24-41.354-3.545-71.286-40.172-71.286-81.526v-232.763c0-43.323 35.446-78.769 78.769-78.769h196.923v-196.923h78.769v216.615c0 43.323-35.446 78.769-78.769 78.769h-118.154v135.877c50.806-42.142 128-76.406 196.923-76.8zM426.535 211.692c-16.148-45.686-59.865-78.769-111.458-78.769-65.378 0-118.154 52.775-118.154 118.154 0 51.594 33.083 94.917 78.769 111.458v81.526c-89.797-18.117-157.538-97.674-157.538-192.985 0-108.702 88.222-196.923 196.923-196.923 95.311 0 174.868 67.742 192.985 157.538h-81.526zM393.846 684.308c43.52 0 78.769 35.249 78.769 78.769s-35.249 78.769-78.769 78.769-78.769-35.249-78.769-78.769 35.249-78.769 78.769-78.769z" />
<glyph unicode="&#xe90e;" glyph-name="uniE90E" horiz-adv-x="1303" d="M539.714 269.182v392.621l291.854-196.272-291.854-196.348zM1152.845 654.563c0 86.113-68.374 155.874-152.749 155.874h-716.386c-84.4 0-152.749-69.761-152.749-155.874v-418.034c0-86.062 68.349-155.874 152.749-155.874h716.386c84.376 0 152.749 69.812 152.749 155.874v418.034z" />
<glyph unicode="&#xe90f;" glyph-name="uniE90F" horiz-adv-x="788" d="M669.538 408.615v78.769c-60.652-0.788-121.698 29.538-160.295 72.074l-50.806 56.32c-6.695 7.483-14.966 13.391-24.025 17.723-0.394 0-0.394 0.394-0.788 0.394h-0.394c-13.785 7.877-29.538 11.815-46.868 10.24-41.354-3.545-71.286-40.172-71.286-81.526v-232.763c0-43.323 35.446-78.769 78.769-78.769h196.923v-196.923h78.769v216.615c0 43.323-35.446 78.769-78.769 78.769h-118.154v135.877c50.806-42.142 128-76.406 196.923-76.8zM426.535 211.692c-16.148-45.686-59.865-78.769-111.458-78.769-65.378 0-118.154 52.775-118.154 118.154 0 51.594 33.083 94.917 78.769 111.458v81.526c-89.797-18.117-157.538-97.674-157.538-192.985 0-108.702 88.222-196.923 196.923-196.923 95.311 0 174.868 67.742 192.985 157.538h-81.526zM393.846 684.308c43.52 0 78.769 35.249 78.769 78.769s-35.249 78.769-78.769 78.769-78.769-35.249-78.769-78.769 35.249-78.769 78.769-78.769z" />
<glyph unicode="&#xe910;" glyph-name="account-circle" d="M512 917.35c-259.072 0-469.35-210.278-469.35-469.35s210.278-469.35 469.35-469.35 469.35 210.278 469.35 469.35-210.278 469.35-469.35 469.35zM512 776.55c77.926 0 140.8-62.925 140.8-140.8 0-77.926-62.874-140.8-140.8-140.8s-140.8 62.874-140.8 140.8c0 77.875 62.874 140.8 140.8 140.8zM512 110.080c-117.35 0-221.030 60.058-281.6 151.142 1.382 93.389 187.75 144.538 281.6 144.538 93.389 0 280.218-51.2 281.6-144.538-60.518-91.085-164.25-151.142-281.6-151.142z" />
<glyph unicode="&#xe911;" glyph-name="add" d="M1024 374.857h-438.857v-438.857h-146.286v438.857h-438.857v146.286h438.857v438.857h146.286v-438.857h438.857z" />
<glyph unicode="&#xe912;" glyph-name="uniE912" d="M90.353 869.647v-84.329h42.165v-758.965h295.153v168.659h168.659v-168.659h295.153v758.965h42.165v84.329h-843.294zM343.341 279.341h-84.329v84.329h84.329v-84.329zM343.341 448h-84.329v84.329h84.329v-84.329zM343.341 616.659h-84.329v84.329h84.329v-84.329zM554.165 279.341h-84.329v84.329h84.329v-84.329zM554.165 448h-84.329v84.329h84.329v-84.329zM554.165 616.659h-84.329v84.329h84.329v-84.329zM764.988 279.341h-84.329v84.329h84.329v-84.329zM764.988 448h-84.329v84.329h84.329v-84.329zM764.988 616.659h-84.329v84.329h84.329v-84.329z" />
<glyph unicode="&#xe913;" glyph-name="uniE913" d="M90.353 869.647v-84.329h42.165v-758.965h295.153v168.659h168.659v-168.659h295.153v758.965h42.165v84.329h-843.294zM343.341 279.341h-84.329v84.329h84.329v-84.329zM343.341 448h-84.329v84.329h84.329v-84.329zM343.341 616.659h-84.329v84.329h84.329v-84.329zM554.165 279.341h-84.329v84.329h84.329v-84.329zM554.165 448h-84.329v84.329h84.329v-84.329zM554.165 616.659h-84.329v84.329h84.329v-84.329zM764.988 279.341h-84.329v84.329h84.329v-84.329zM764.988 448h-84.329v84.329h84.329v-84.329zM764.988 616.659h-84.329v84.329h84.329v-84.329z" />
<glyph unicode="&#xe914;" glyph-name="arrow-down" horiz-adv-x="1536" d="M1332.48 848.128l-545.664-537.344-545.792 537.344-167.68-165.504 713.472-704 713.344 704z" />
<glyph unicode="&#xe915;" glyph-name="bed" horiz-adv-x="1575" d="M459.461 421.77c109.017 0 196.923 87.906 196.923 196.923 0 108.938-87.906 196.923-196.923 196.923-108.938 0-196.923-87.985-196.923-196.923 0-109.017 87.985-196.923 196.923-196.923zM1247.153 815.616h-525.076v-459.54h-525.154v590.769h-131.308v-984.615h131.308v196.923h1181.538v-196.923h131.308v590.769c0 145.093-117.524 262.617-262.617 262.617z" />
<glyph unicode="&#xe916;" glyph-name="border-plain" d="M141.068 310.004c-15.945 42.959-24.722 89.478-24.722 137.996 0 218.502 177.152 395.654 395.654 395.654 218.453 0 395.605-177.152 395.605-395.654 0-218.453-177.103-395.605-395.605-395.605-96.11 0-184.222 34.28-252.782 91.234 107.959 75.24 205.434 169.691 239.762 229.181l48.030-161.841c4.584-13.166 23.65-16.579 34.377-4.291l38.522 42.764c3.852 4.096 5.169 9.265 5.608 14.482l-3.023 196.364c-0.39 0.488 0.049 0.829-0.341 1.317 89.429 82.31 92.648 118.979 72.704 142.677-19.895 23.747-56.076 27.307-153.064-45.934l-0.878 0.049-193.78 36.328c-4.73 0.829-10.533 0-15.214-3.072l-48.811-30.476c-13.946-8.436-13.848-27.794 0-34.718l135.558-68.998-45.495-20.724c-74.216-46.080-151.942-88.747-232.058-126.732zM171.301 246.76c93.574 44.958 176.079 91.526 242.152 132.584-11.8-33.158-81.286-107.959-202.167-188.465-14.872 17.408-28.282 36.084-39.985 55.881zM512-17.432c257.073 0 465.432 208.36 465.432 465.432s-208.36 465.432-465.432 465.432-465.432-208.36-465.432-465.432 208.36-465.432 465.432-465.432zM512-64c-282.77 0-512 229.23-512 512s229.23 512 512 512 512-229.23 512-512-229.23-512-512-512z" />
<glyph unicode="&#xe917;" glyph-name="uniE917" horiz-adv-x="1054" d="M162.846 691.2h-55.176c-6.837 0-13.011 4.006-15.812 10.24-2.771 6.234-1.656 13.523 2.891 18.613l133.632 149.594h611.328l133.632-149.594c4.548-5.12 5.692-12.378 2.891-18.613s-8.975-10.24-15.812-10.24h-55.176v-644.397h-269.764v132.337c0 26.895-10.692 52.706-29.696 71.74-19.034 19.004-44.815 29.696-71.71 29.696h-0.030c-26.895 0-52.706-10.692-71.71-29.696-19.034-19.034-29.726-44.845-29.726-71.74v-132.337h-269.764v644.397zM388.066 246.182c0 13.523-5.361 26.504-14.938 36.051-9.547 9.547-22.528 14.938-36.051 14.938s-26.504-5.391-36.051-14.938c-9.577-9.577-14.938-22.528-14.938-36.051v-69.512c0-1.416 0.572-2.801 1.566-3.795 1.024-1.024 2.379-1.566 3.795-1.566h91.256c1.416 0 2.801 0.542 3.795 1.566 0.994 0.994 1.566 2.379 1.566 3.795v69.512zM782.005 246.182c0 13.523-5.361 26.504-14.938 36.051-9.547 9.547-22.528 14.938-36.051 14.938-13.553 0-26.504-5.391-36.051-14.938-9.547-9.577-14.938-22.528-14.938-36.051v-69.512c0-1.416 0.572-2.801 1.566-3.795 1.024-1.024 2.409-1.566 3.795-1.566h91.256c1.416 0 2.771 0.542 3.795 1.566 1.024 0.994 1.566 2.379 1.566 3.795v69.512zM388.066 431.134c0 13.553-5.361 26.504-14.938 36.081-9.547 9.547-22.528 14.908-36.051 14.908s-26.504-5.361-36.051-14.908c-9.577-9.577-14.938-22.528-14.938-36.081v-69.481c0-1.416 0.572-2.801 1.566-3.795 1.024-1.024 2.379-1.566 3.795-1.566h91.256c1.416 0 2.801 0.542 3.795 1.566 0.994 0.994 1.566 2.379 1.566 3.795v69.481zM585.035 431.134c0 13.553-5.361 26.504-14.938 36.081-9.547 9.547-22.528 14.908-36.051 14.908s-26.504-5.361-36.051-14.908c-9.577-9.577-14.938-22.528-14.938-36.081v-69.481c0-1.416 0.572-2.801 1.566-3.795 1.024-1.024 2.379-1.566 3.795-1.566h91.256c1.416 0 2.771 0.542 3.795 1.566 0.994 0.994 1.566 2.379 1.566 3.795v69.481zM782.005 431.134c0 13.553-5.361 26.504-14.938 36.081-9.547 9.547-22.528 14.908-36.051 14.908-13.553 0-26.504-5.361-36.051-14.908-9.547-9.577-14.938-22.528-14.938-36.081v-69.481c0-1.416 0.572-2.801 1.566-3.795 1.024-1.024 2.409-1.566 3.795-1.566h91.256c1.416 0 2.771 0.542 3.795 1.566 1.024 0.994 1.566 2.379 1.566 3.795v69.481zM388.066 616.177c0 13.553-5.361 26.504-14.938 36.051-9.547 9.577-22.528 14.938-36.051 14.938s-26.504-5.361-36.051-14.938c-9.577-9.547-14.938-22.528-14.938-36.051v-69.481c0-1.446 0.572-2.801 1.566-3.795 1.024-1.024 2.379-1.596 3.795-1.596h91.256c1.416 0 2.801 0.602 3.795 1.596s1.566 2.349 1.566 3.795v69.481zM585.035 616.177c0 13.553-5.361 26.504-14.938 36.051-9.547 9.577-22.528 14.938-36.051 14.938s-26.504-5.361-36.051-14.938c-9.577-9.547-14.938-22.528-14.938-36.051v-69.481c0-1.446 0.572-2.801 1.566-3.795 1.024-1.024 2.379-1.596 3.795-1.596h91.256c1.416 0 2.771 0.602 3.795 1.596 0.994 0.994 1.566 2.349 1.566 3.795v69.481zM782.005 616.177c0 13.553-5.361 26.504-14.938 36.051-9.547 9.577-22.528 14.938-36.051 14.938-13.553 0-26.504-5.361-36.051-14.938-9.547-9.547-14.938-22.528-14.938-36.051v-69.481c0-1.446 0.572-2.801 1.566-3.795 1.024-1.024 2.409-1.596 3.795-1.596h91.256c1.416 0 2.771 0.602 3.795 1.596s1.566 2.349 1.566 3.795v69.481z" />
<glyph unicode="&#xe918;" glyph-name="uniE918" horiz-adv-x="1054" d="M162.846 691.2h-55.176c-6.837 0-13.011 4.006-15.812 10.24-2.771 6.234-1.656 13.523 2.891 18.613l133.632 149.594h611.328l133.632-149.594c4.548-5.12 5.692-12.378 2.891-18.613s-8.975-10.24-15.812-10.24h-55.176v-644.397h-269.764v132.337c0 26.895-10.692 52.706-29.696 71.74-19.034 19.004-44.815 29.696-71.71 29.696h-0.030c-26.895 0-52.706-10.692-71.71-29.696-19.034-19.034-29.726-44.845-29.726-71.74v-132.337h-269.764v644.397zM388.066 246.182c0 13.523-5.361 26.504-14.938 36.051-9.547 9.547-22.528 14.938-36.051 14.938s-26.504-5.391-36.051-14.938c-9.577-9.577-14.938-22.528-14.938-36.051v-69.512c0-1.416 0.572-2.801 1.566-3.795 1.024-1.024 2.379-1.566 3.795-1.566h91.256c1.416 0 2.801 0.542 3.795 1.566 0.994 0.994 1.566 2.379 1.566 3.795v69.512zM782.005 246.182c0 13.523-5.361 26.504-14.938 36.051-9.547 9.547-22.528 14.938-36.051 14.938-13.553 0-26.504-5.391-36.051-14.938-9.547-9.577-14.938-22.528-14.938-36.051v-69.512c0-1.416 0.572-2.801 1.566-3.795 1.024-1.024 2.409-1.566 3.795-1.566h91.256c1.416 0 2.771 0.542 3.795 1.566 1.024 0.994 1.566 2.379 1.566 3.795v69.512zM388.066 431.134c0 13.553-5.361 26.504-14.938 36.081-9.547 9.547-22.528 14.908-36.051 14.908s-26.504-5.361-36.051-14.908c-9.577-9.577-14.938-22.528-14.938-36.081v-69.481c0-1.416 0.572-2.801 1.566-3.795 1.024-1.024 2.379-1.566 3.795-1.566h91.256c1.416 0 2.801 0.542 3.795 1.566 0.994 0.994 1.566 2.379 1.566 3.795v69.481zM585.035 431.134c0 13.553-5.361 26.504-14.938 36.081-9.547 9.547-22.528 14.908-36.051 14.908s-26.504-5.361-36.051-14.908c-9.577-9.577-14.938-22.528-14.938-36.081v-69.481c0-1.416 0.572-2.801 1.566-3.795 1.024-1.024 2.379-1.566 3.795-1.566h91.256c1.416 0 2.771 0.542 3.795 1.566 0.994 0.994 1.566 2.379 1.566 3.795v69.481zM782.005 431.134c0 13.553-5.361 26.504-14.938 36.081-9.547 9.547-22.528 14.908-36.051 14.908-13.553 0-26.504-5.361-36.051-14.908-9.547-9.577-14.938-22.528-14.938-36.081v-69.481c0-1.416 0.572-2.801 1.566-3.795 1.024-1.024 2.409-1.566 3.795-1.566h91.256c1.416 0 2.771 0.542 3.795 1.566 1.024 0.994 1.566 2.379 1.566 3.795v69.481zM388.066 616.177c0 13.553-5.361 26.504-14.938 36.051-9.547 9.577-22.528 14.938-36.051 14.938s-26.504-5.361-36.051-14.938c-9.577-9.547-14.938-22.528-14.938-36.051v-69.481c0-1.446 0.572-2.801 1.566-3.795 1.024-1.024 2.379-1.596 3.795-1.596h91.256c1.416 0 2.801 0.602 3.795 1.596s1.566 2.349 1.566 3.795v69.481zM585.035 616.177c0 13.553-5.361 26.504-14.938 36.051-9.547 9.577-22.528 14.938-36.051 14.938s-26.504-5.361-36.051-14.938c-9.577-9.547-14.938-22.528-14.938-36.051v-69.481c0-1.446 0.572-2.801 1.566-3.795 1.024-1.024 2.379-1.596 3.795-1.596h91.256c1.416 0 2.771 0.602 3.795 1.596 0.994 0.994 1.566 2.349 1.566 3.795v69.481zM782.005 616.177c0 13.553-5.361 26.504-14.938 36.051-9.547 9.577-22.528 14.938-36.051 14.938-13.553 0-26.504-5.361-36.051-14.938-9.547-9.547-14.938-22.528-14.938-36.051v-69.481c0-1.446 0.572-2.801 1.566-3.795 1.024-1.024 2.409-1.596 3.795-1.596h91.256c1.416 0 2.771 0.602 3.795 1.596s1.566 2.349 1.566 3.795v69.481z" />
<glyph unicode="&#xe919;" glyph-name="close" d="M1009.749 845.483l-100.267 100.267-397.483-397.483-397.483 397.483-100.267-100.267 397.483-397.483-397.483-397.483 100.267-100.267 397.483 397.483 397.483-397.483 100.267 100.267-397.483 397.483z" />
<glyph unicode="&#xe91a;" glyph-name="diamond" horiz-adv-x="1229" d="M15.923 564.224c6.656-7.014 558.49-593.152 566.374-598.528 22.221-15.206 53.094-12.8 72.653 7.578l0.563 0.512 556.8 590.438c0.563 0.614 0.717 1.434 1.28 2.048 21.094 24.064 19.405 59.494-2.15 81.306l-261.734 265.37c-11.878 18.944-31.949 28.774-53.043 26.982-5.939 0-562.944 0-568.883-0.154-13.824-0.358-26.522-5.478-36.71-14.643-0.87-0.768-1.894-1.434-2.765-2.253l-271.514-275.251c-22.528-22.886-21.248-61.798-0.87-83.405zM304.179 772.864l35.482-107.878h-141.824l106.291 107.878zM1030.451 664.986h-139.776l35.123 106.035 104.653-106.035zM729.498 545.946l-115.098-347.136-114.022 347.136h229.171zM851.2 545.946h183.654l-283.29-300.39 99.635 300.39zM769.024 664.986h-307.814l-51.507 156.774h411.29l-51.968-156.774zM378.726 545.946l99.123-301.619-284.416 301.619h185.344z" />
<glyph unicode="&#xe91b;" glyph-name="dinner" horiz-adv-x="1088" d="M304 376.512l150.912 150.976-374.4 373.824c-83.2-83.2-83.2-218.112 0-301.824l223.488-222.976zM665.6 473.088c81.6-37.888 196.288-11.2 281.088 73.6 101.824 101.824 121.6 248 43.2 326.4-77.888 77.824-224 58.624-326.4-43.2-84.8-84.8-111.488-199.488-73.6-281.088l-520.576-520.512 75.2-75.2 367.488 366.4 366.912-366.976 75.2 75.2-366.912 366.976 78.4 78.4z" />
<glyph unicode="&#xe91c;" glyph-name="dinnerPlate" horiz-adv-x="1536" d="M759.936 49.152c-205.12 0-371.84 166.848-371.84 371.84 0 205.12 166.72 371.904 371.84 371.904 205.056 0 371.84-166.784 371.84-371.84s-166.784-371.84-371.84-371.84zM759.936 889.92c-258.56 0-468.928-210.304-468.928-468.864s210.368-468.864 468.928-468.864 468.864 210.304 468.864 468.864c0 258.56-210.304 468.864-468.864 468.864zM226.368 938.432c-17.92 0-32.32-14.464-32.32-32.32v-194.048c0-34.944-13.248-65.984-32.384-83.072v277.12c0 17.92-14.464 32.32-32.32 32.32-17.92 0-32.32-14.464-32.32-32.32v-277.12c-19.136 17.088-32.32 48.128-32.32 83.072v194.048c-0.064 17.92-14.464 32.32-32.384 32.32-17.856 0-32.32-14.464-32.32-32.32v-194.048c0-67.584 33.536-125.568 80.832-149.632v-561.728c0-26.816 21.76-48.512 48.512-48.512s48.512 21.696 48.512 48.512v561.728c47.36 24.064 80.832 81.92 80.832 149.632v194.048c0 17.92-14.464 32.32-32.32 32.32zM1390.464 631.232c-26.688 0-48.512 21.76-48.512 48.512v64.64c0 59.2 35.2 111.808 48.512 113.216 13.312-1.408 48.512-54.016 48.512-113.152v-64.64c0-26.816-21.76-48.576-48.512-48.576zM1390.464 954.624c-93.696 0-145.472-124.288-145.472-210.176v-64.64c0-63.168 40.64-116.48 96.96-136.64v-542.464c0-26.816 21.76-48.512 48.512-48.512 26.816 0 48.512 21.696 48.512 48.512v542.464c56.32 20.096 97.024 73.472 97.024 136.576v64.64c0 85.952-51.84 210.24-145.536 210.24z" />
<glyph unicode="&#xe91d;" glyph-name="uniE91D" horiz-adv-x="1144" d="M1049.901 145.98s-115.049 311.236-143.36 369.152c-28.1 58.097-56.35 94.268-164.081 94.268h-21.926c-107.942 0-135.831-36.382-164.292-94.268-1.144-2.108-2.319-4.819-3.644-7.71-24.636 26.564-60.988 41.743-130.831 41.743h-21.926c-107.52 0-135.831-36.141-164.081-94.268-28.28-57.675-143.089-368.911-143.089-368.911-5.963-14.035 0.572-29.997 14.216-35.78 13.854-5.783 29.636 0.753 35.78 14.426l156.792 309.88-57.916-355.509h251.241v19.064s0.602 111.375-54.453 152.727l-96.738 75.415c-11.565 8.855-13.854 25.6-4.638 37.316 7.891 9.999 21.956 12.499 33.491 6.927l74.24-36.352c42.165-20.6 88.486-31.352 135.439-31.352 46.923 0 93.304 10.752 135.409 31.322l74.27 36.382c11.354 5.572 25.6 3.072 33.461-6.927 9.246-11.746 6.927-28.461-4.608-37.346l-96.768-75.384c-54.814-41.352-54.423-152.727-54.423-152.727v-19.064h197.752l2.711 367.224 132.337-261.602c5.963-13.673 21.715-20.179 35.78-14.456 13.463 5.993 19.998 21.775 13.854 35.81zM580.277 264.282c-45.176-0.181-81.92 36.352-82.131 81.559-0.181 45.207 36.352 81.95 81.378 82.131 45.176 0.211 81.92-36.352 82.131-81.559 0.181-45.176-36.352-82.131-81.378-82.131z" />
<glyph unicode="&#xe91e;" glyph-name="uniE91E" horiz-adv-x="1144" d="M1049.901 145.98s-115.049 311.236-143.36 369.152c-28.1 58.097-56.35 94.268-164.081 94.268h-21.926c-107.942 0-135.831-36.382-164.292-94.268-1.144-2.108-2.319-4.819-3.644-7.71-24.636 26.564-60.988 41.743-130.831 41.743h-21.926c-107.52 0-135.831-36.141-164.081-94.268-28.28-57.675-143.089-368.911-143.089-368.911-5.963-14.035 0.572-29.997 14.216-35.78 13.854-5.783 29.636 0.753 35.78 14.426l156.792 309.88-57.916-355.509h251.241v19.064s0.602 111.375-54.453 152.727l-96.738 75.415c-11.565 8.855-13.854 25.6-4.638 37.316 7.891 9.999 21.956 12.499 33.491 6.927l74.24-36.352c42.165-20.6 88.486-31.352 135.439-31.352 46.923 0 93.304 10.752 135.409 31.322l74.27 36.382c11.354 5.572 25.6 3.072 33.461-6.927 9.246-11.746 6.927-28.461-4.608-37.346l-96.768-75.384c-54.814-41.352-54.423-152.727-54.423-152.727v-19.064h197.752l2.711 367.224 132.337-261.602c5.963-13.673 21.715-20.179 35.78-14.456 13.463 5.993 19.998 21.775 13.854 35.81zM580.277 264.282c-45.176-0.181-81.92 36.352-82.131 81.559-0.181 45.207 36.352 81.95 81.378 82.131 45.176 0.211 81.92-36.352 82.131-81.559 0.181-45.176-36.352-82.131-81.378-82.131z" />
<glyph unicode="&#xe91f;" glyph-name="uniE91F" horiz-adv-x="1144" d="M411.046 574.374c59.422 0 107.701 48.098 107.701 107.52 0 59.452-48.279 107.55-107.701 107.55-59.633 0-107.731-48.279-107.731-107.52 0-59.452 48.279-107.52 107.731-107.52z" />
<glyph unicode="&#xe920;" glyph-name="uniE920" horiz-adv-x="1144" d="M411.046 574.374c59.422 0 107.701 48.098 107.701 107.52 0 59.452-48.279 107.55-107.701 107.55-59.633 0-107.731-48.279-107.731-107.52 0-59.452 48.279-107.52 107.731-107.52z" />
<glyph unicode="&#xe921;" glyph-name="uniE921" horiz-adv-x="1144" d="M731.528 634.579c63.849 0 115.592 51.742 115.592 115.441 0 63.669-51.712 115.411-115.561 115.411s-115.652-51.742-115.652-115.411c0-63.849 51.953-115.441 115.652-115.441z" />
<glyph unicode="&#xe922;" glyph-name="uniE922" horiz-adv-x="1144" d="M731.528 634.579c63.849 0 115.592 51.742 115.592 115.441 0 63.669-51.712 115.411-115.561 115.411s-115.652-51.742-115.652-115.411c0-63.849 51.953-115.441 115.652-115.441z" />
<glyph unicode="&#xe923;" glyph-name="uniE923" horiz-adv-x="1055" d="M431.663 866.909c-19.921 0-38.757-9.185-51.014-24.886s-16.601-36.181-11.792-55.544l55.482-221.805c1.552-6.113 0.155-12.598-3.724-17.563s-9.837-7.882-16.136-7.882h-137.619l-69.911 69.911c-7.696 7.696-18.122 12.009-28.982 12.009h-39.626c-14.212 0-27.4-7.354-34.847-19.425-7.447-12.102-8.13-27.152-1.8-39.843l43.132-86.264c5.772-11.512 5.772-25.104 0-36.616l-43.132-86.264c-6.33-12.691-5.679-27.772 1.8-39.843 7.447-12.102 20.635-19.425 34.847-19.425h39.626c10.861 0 21.287 4.344 28.982 12.009l69.911 69.911h137.619c6.299 0 12.257-2.917 16.136-7.882s5.275-11.45 3.724-17.563l-55.451-221.867c-8.006-32.023 9.371-64.915 40.339-76.366 30.937-11.481 65.567 2.203 80.306 31.744l134.672 269.25c6.92 13.871 21.101 22.652 36.616 22.652h220.439c24.142 0 47.042 10.643 62.619 29.075 15.546 18.463 22.218 42.822 18.184 66.591-8.13 40.339-44.063 69.073-85.178 68.174h-216.064c-15.515 0-29.696 8.751-36.616 22.652l-134.672 269.25c-10.954 21.969-33.358 35.809-57.872 35.809z" />
<glyph unicode="&#xe924;" glyph-name="uniE924" horiz-adv-x="1055" d="M431.663 866.909c-19.921 0-38.757-9.185-51.014-24.886s-16.601-36.181-11.792-55.544l55.482-221.805c1.552-6.113 0.155-12.598-3.724-17.563s-9.837-7.882-16.136-7.882h-137.619l-69.911 69.911c-7.696 7.696-18.122 12.009-28.982 12.009h-39.626c-14.212 0-27.4-7.354-34.847-19.425-7.447-12.102-8.13-27.152-1.8-39.843l43.132-86.264c5.772-11.512 5.772-25.104 0-36.616l-43.132-86.264c-6.33-12.691-5.679-27.772 1.8-39.843 7.447-12.102 20.635-19.425 34.847-19.425h39.626c10.861 0 21.287 4.344 28.982 12.009l69.911 69.911h137.619c6.299 0 12.257-2.917 16.136-7.882s5.275-11.45 3.724-17.563l-55.451-221.867c-8.006-32.023 9.371-64.915 40.339-76.366 30.937-11.481 65.567 2.203 80.306 31.744l134.672 269.25c6.92 13.871 21.101 22.652 36.616 22.652h220.439c24.142 0 47.042 10.643 62.619 29.075 15.546 18.463 22.218 42.822 18.184 66.591-8.13 40.339-44.063 69.073-85.178 68.174h-216.064c-15.515 0-29.696 8.751-36.616 22.652l-134.672 269.25c-10.954 21.969-33.358 35.809-57.872 35.809z" />
<glyph unicode="&#xe925;" glyph-name="uniE925" horiz-adv-x="910" d="M814.649 453.404c-11.207 11.634-23.808 16.27-36.636 16.27-24.348 0-49.465-16.725-67.157-33.764-0.284-0.284-85.39-70.855-114.347-99.385-5.234-5.177-15.445-9.358-22.812-9.358-28.245-31.687-69.348-51.655-115.029-51.655s-86.756 19.968-115.029 51.655h-2.503c-7.367 0-17.835 3.925-23.41 8.732l-113.721 98.844c-17.351 16.725-41.927 34.332-65.764 34.332-10.581 0-21.049-3.499-30.635-12.060-33.593-30.037-12.345-69.12 14.308-94.635l127.744-122.368s50.034-53.049 53.589-85.191v-76.8c0-31.317 25.372-56.69 56.661-56.69h204.601c31.289 0 56.661 25.372 56.661 56.661v76.8c3.556 32.171 50.489 85.22 50.489 85.22l124.587 123.62c22.756 23.41 45.54 61.497 18.404 89.771z" />
<glyph unicode="&#xe926;" glyph-name="uniE926" horiz-adv-x="910" d="M814.649 453.404c-11.207 11.634-23.808 16.27-36.636 16.27-24.348 0-49.465-16.725-67.157-33.764-0.284-0.284-85.39-70.855-114.347-99.385-5.234-5.177-15.445-9.358-22.812-9.358-28.245-31.687-69.348-51.655-115.029-51.655s-86.756 19.968-115.029 51.655h-2.503c-7.367 0-17.835 3.925-23.41 8.732l-113.721 98.844c-17.351 16.725-41.927 34.332-65.764 34.332-10.581 0-21.049-3.499-30.635-12.060-33.593-30.037-12.345-69.12 14.308-94.635l127.744-122.368s50.034-53.049 53.589-85.191v-76.8c0-31.317 25.372-56.69 56.661-56.69h204.601c31.289 0 56.661 25.372 56.661 56.661v76.8c3.556 32.171 50.489 85.22 50.489 85.22l124.587 123.62c22.756 23.41 45.54 61.497 18.404 89.771z" />
<glyph unicode="&#xe927;" glyph-name="uniE927" horiz-adv-x="910" d="M586.183 429.653c0-70.425-57.091-127.516-127.516-127.516s-127.516 57.091-127.516 127.516c0 70.425 57.091 127.516 127.516 127.516s127.516-57.091 127.516-127.516z" />
<glyph unicode="&#xe928;" glyph-name="uniE928" horiz-adv-x="910" d="M586.183 429.653c0-70.425-57.091-127.516-127.516-127.516s-127.516 57.091-127.516 127.516c0 70.425 57.091 127.516 127.516 127.516s127.516-57.091 127.516-127.516z" />
<glyph unicode="&#xe929;" glyph-name="uniE929" horiz-adv-x="910" d="M218.681 588.004c0-36.823-29.851-66.674-66.674-66.674s-66.674 29.851-66.674 66.674c0 36.823 29.851 66.674 66.674 66.674s66.674-29.851 66.674-66.674z" />
<glyph unicode="&#xe92a;" glyph-name="uniE92A" horiz-adv-x="910" d="M218.681 588.004c0-36.823-29.851-66.674-66.674-66.674s-66.674 29.851-66.674 66.674c0 36.823 29.851 66.674 66.674 66.674s66.674-29.851 66.674-66.674z" />
<glyph unicode="&#xe92b;" glyph-name="uniE92B" horiz-adv-x="910" d="M525.34 807.993c0-36.823-29.851-66.674-66.674-66.674s-66.674 29.851-66.674 66.674c0 36.823 29.851 66.674 66.674 66.674s66.674-29.851 66.674-66.674z" />
<glyph unicode="&#xe92c;" glyph-name="uniE92C" horiz-adv-x="910" d="M525.34 807.993c0-36.823-29.851-66.674-66.674-66.674s-66.674 29.851-66.674 66.674c0 36.823 29.851 66.674 66.674 66.674s66.674-29.851 66.674-66.674z" />
<glyph unicode="&#xe92d;" glyph-name="uniE92D" horiz-adv-x="910" d="M271.929 801.337c-12.060 0-24.32-3.3-35.3-10.183-31.204-19.541-40.676-60.644-21.106-91.876 12.658-20.196 34.332-31.289 56.519-31.289 12.089 0 24.32 3.3 35.328 10.183 31.204 19.541 40.676 60.644 21.106 91.876-12.658 20.196-34.332 31.289-56.519 31.289z" />
<glyph unicode="&#xe92e;" glyph-name="uniE92E" horiz-adv-x="910" d="M271.929 801.337c-12.060 0-24.32-3.3-35.3-10.183-31.204-19.541-40.676-60.644-21.106-91.876 12.658-20.196 34.332-31.289 56.519-31.289 12.089 0 24.32 3.3 35.328 10.183 31.204 19.541 40.676 60.644 21.106 91.876-12.658 20.196-34.332 31.289-56.519 31.289z" />
<glyph unicode="&#xe92f;" glyph-name="uniE92F" horiz-adv-x="910" d="M609.934 684.857c11.008-6.912 23.239-10.183 35.356-10.183 22.187 0 43.861 11.065 56.519 31.289 19.57 31.204 10.098 72.306-21.077 91.847-11.008 6.884-23.268 10.183-35.356 10.183-22.187 0-43.861-11.093-56.519-31.289-19.57-31.204-10.126-72.306 21.077-91.876z" />
<glyph unicode="&#xe930;" glyph-name="uniE930" horiz-adv-x="910" d="M609.934 684.857c11.008-6.912 23.239-10.183 35.356-10.183 22.187 0 43.861 11.065 56.519 31.289 19.57 31.204 10.098 72.306-21.077 91.847-11.008 6.884-23.268 10.183-35.356 10.183-22.187 0-43.861-11.093-56.519-31.289-19.57-31.204-10.126-72.306 21.077-91.876z" />
<glyph unicode="&#xe931;" glyph-name="uniE931" horiz-adv-x="910" d="M832 588.004c0-36.823-29.851-66.674-66.674-66.674s-66.674 29.851-66.674 66.674c0 36.823 29.851 66.674 66.674 66.674s66.674-29.851 66.674-66.674z" />
<glyph unicode="&#xe932;" glyph-name="uniE932" horiz-adv-x="910" d="M832 588.004c0-36.823-29.851-66.674-66.674-66.674s-66.674 29.851-66.674 66.674c0 36.823 29.851 66.674 66.674 66.674s66.674-29.851 66.674-66.674z" />
<glyph unicode="&#xe933;" glyph-name="globe" horiz-adv-x="1084" d="M541.636 949.941c-277.082 0-501.459-224.858-501.459-501.941s224.376-501.941 501.459-501.941c277.564 0 502.423 224.858 502.423 501.941s-224.858 501.941-502.423 501.941zM889.495 648.764h-148.119c-16.023 62.765-39.153 123-69.271 178.718 92.401-31.624 169.201-95.895 217.389-178.718zM542.118 847.541c41.683-60.235 74.27-126.976 95.895-198.776h-191.789c21.624 71.8 54.212 138.541 95.895 198.776zM153.6 347.588c-8.011 32.166-13.071 65.777-13.071 100.412s5.060 68.247 13.071 100.412h169.683c-4.036-33.129-7.048-66.259-7.048-100.412s3.012-67.283 7.048-100.412h-169.683zM194.741 247.236h148.119c16.023-62.765 39.153-123 69.271-178.718-92.401 31.624-169.201 95.352-217.389 178.718zM342.859 648.764h-148.119c48.188 83.366 124.988 147.095 217.389 178.718-30.118-55.718-53.248-115.953-69.271-178.718zM542.118 48.459c-41.683 60.235-74.27 126.976-95.895 198.776h191.789c-21.624-71.8-54.212-138.541-95.895-198.776zM659.576 347.588h-234.918c-4.518 33.129-8.011 66.259-8.011 100.412s3.494 67.765 8.011 100.412h234.918c4.518-32.648 8.011-66.259 8.011-100.412s-3.494-67.283-8.011-100.412zM672.105 68.518c30.118 55.718 53.248 115.953 69.271 178.718h148.119c-48.188-82.824-124.988-147.095-217.389-178.718zM760.952 347.588c4.036 33.129 7.048 66.259 7.048 100.412s-3.012 67.283-7.048 100.412h169.683c8.011-32.166 13.071-65.777 13.071-100.412s-5.060-68.247-13.071-100.412h-169.683z" />
<glyph unicode="&#xe934;" glyph-name="gym" horiz-adv-x="1877" d="M1681.749 217.088v461.824h78.251v-461.824h-78.251zM1408 56.491v783.019h156.416v-783.019h-156.416zM586.667 387.755v120.491h704v-120.491h-704zM312.917 56.491v783.019h156.416v-783.019h-156.416zM117.333 217.088v461.824h78.251v-461.824h-78.251zM1818.709 799.403h-136.96v100.352c0 33.28-26.283 60.245-58.624 60.245h-273.835c-32.427 0-58.624-26.965-58.624-60.245v-271.019h-704v271.019c0 33.28-26.283 60.245-58.709 60.245h-273.664c-32.427 0-58.624-26.965-58.624-60.245v-100.352h-136.96c-32.427 0-58.624-26.965-58.624-60.245v-582.315c0-33.28 26.283-60.245 58.709-60.245h136.875v-100.352c0-33.28 26.283-60.245 58.624-60.245h273.835c32.427 0 58.624 26.965 58.624 60.245v271.019h704v-271.019c0-33.28 26.283-60.245 58.709-60.245h273.749c32.427 0 58.624 26.965 58.624 60.245v100.352h136.96c32.427 0 58.624 26.965 58.624 60.245v582.315c0 33.28-26.283 60.245-58.709 60.245z" />
<glyph unicode="&#xe935;" glyph-name="heart" horiz-adv-x="1205" d="M870.882 951.025c-82.824 0-160.587-31.985-220.823-89.57l-55.236-52.465-59.031 48.61c-66.379 53.73-152.937 79.33-237.086 70.415-85.353-8.975-161.912-52.525-215.883-121.615-53.971-67.825-77.824-153.6-69.030-241.905 8.794-87.040 51.441-165.105 117.941-220.16l479.413-392.975c5-3.855 9.999-5.12 16.264-5.12 6.325 0 12.589 2.53 17.589 6.385l435.501 419.84 11.264 10.24c11.324 11.505 21.323 21.745 30.118 33.31 100.412 126.735 92.883 312.32-17.589 431.345-60.235 66.56-144.264 103.665-233.412 103.665z" />
<glyph unicode="&#xe936;" glyph-name="help" d="M465.050 166.4h93.901v93.85h-93.901v-93.85zM512 917.35c-259.072 0-469.35-210.278-469.35-469.35s210.278-469.35 469.35-469.35 469.35 210.278 469.35 469.35-210.278 469.35-469.35 469.35zM512 72.55c-207.002 0-375.45 168.448-375.45 375.45s168.448 375.45 375.45 375.45 375.45-168.448 375.45-375.45-168.448-375.45-375.45-375.45zM512 729.6c-103.731 0-187.75-83.968-187.75-187.75h93.901c0 51.661 42.24 93.901 93.85 93.901s93.85-42.24 93.85-93.901c0-93.85-140.8-82.125-140.8-234.65h93.901c0 105.626 140.8 117.35 140.8 234.65 0 103.782-84.019 187.75-187.75 187.75z" />
<glyph unicode="&#xe937;" glyph-name="icon1" horiz-adv-x="1325" d="M1007.616 218.323h110.050v28.311h-110.050v-28.311zM1007.616 671.895h110.050v28.311h-110.050v-28.311zM99.75 48.218c-7.59 0-13.794 6.325-13.794 14.155 0 3.373-1.144 6.264-1.807 9.397 0.663 3.132 1.807 6.084 1.807 9.457v774.867c0 7.831 6.204 14.216 13.794 14.216h935.454v-113.423h-55.055c-15.24 0-27.528-12.649-27.528-28.311v-85.052c0-15.661 12.288-28.311 27.528-28.311h54.995v-311.838h-54.995c-15.24 0-27.528-12.71-27.528-28.311v-85.112c0-15.661 12.288-28.311 27.528-28.311h54.995v-113.363h-935.454zM1090.199 48.218v113.363h54.995c15.24 0 27.528 12.649 27.528 28.311v85.052c0 15.661-12.288 28.311-27.528 28.311h-54.935v311.959h54.995c15.24 0 27.528 12.649 27.528 28.311v85.112c0 15.661-12.288 28.311-27.528 28.311h-54.995v113.363h137.517c7.59 0 13.794-6.385 13.794-14.216v-793.6c0-7.831-6.204-14.155-13.794-14.155h-137.517zM1227.716 955.302h-1127.966c-53.128 0-96.316-44.574-96.316-99.208v-774.807c0-3.373 1.205-6.325 1.807-9.457-0.602-3.132-1.807-6.024-1.807-9.397 0-54.694 43.189-99.208 96.316-99.208h1127.966c53.128 0 96.316 44.514 96.316 99.208v793.66c0 54.694-43.189 99.208-96.316 99.208zM526.155 277.835v81.92c16.203 4.759 30.901 13.252 42.647 24.998l68.367-40.599c-27.287-34.816-66.199-59.031-111.014-66.259zM360.207 344.094l68.307 40.659c11.746-11.746 26.504-20.239 42.647-24.998v-81.92c-44.815 7.228-83.727 31.503-110.953 66.259zM471.16 640.632v-81.92c-16.203-4.698-30.901-13.252-42.647-25.058l-68.367 40.719c27.347 34.816 66.259 59.031 111.014 66.259zM637.169 574.374l-68.367-40.719c-11.746 11.806-26.443 20.36-42.647 25.118v81.86c44.815-7.228 83.727-31.443 111.014-66.259zM319.849 459.324c0 23.311 4.638 45.598 12.469 66.199l68.849-41.020c-1.988-8.132-3.373-16.504-3.373-25.239 0-8.794 1.385-17.167 3.373-25.299l-68.849-40.96c-7.831 20.6-12.469 42.827-12.469 66.259zM498.688 411.979c-25.299 0-45.899 21.203-45.899 47.285 0 25.961 20.6 47.224 45.899 47.224 25.239 0 45.779-21.263 45.779-47.224 0-26.082-20.54-47.285-45.779-47.285zM677.466 459.264c0-23.432-4.638-45.658-12.469-66.259l-68.849 40.96c1.988 8.132 3.373 16.504 3.373 25.299 0 8.734-1.385 17.107-3.373 25.239l68.849 40.96c7.831-20.54 12.469-42.767 12.469-66.199zM498.748 728.516c-144.143 0-261.421-120.772-261.421-269.252s117.278-269.252 261.421-269.252c144.083 0 261.361 120.772 261.361 269.252s-117.278 269.252-261.421 269.252z" />
<glyph unicode="&#xe938;" glyph-name="icon2" horiz-adv-x="1446" d="M587.294 491.731h331.294v92.642h-331.294v-92.642zM907.625 337.348c-81.137 0-116.254-35.72-147.215-67.162l-7.59-7.77-8.011-8.072c-26.383-26.925-39.635-40.478-83.607-40.478-38.008 0-53.429 10.782-73.909 30.901v154.323h331.294v-62.344c-3.735 0.181-7.048 0.602-10.963 0.602zM21.203 188.506c30.961-31.503 66.018-67.283 147.215-67.283 81.137 0 116.194 35.78 147.155 67.283l15.661 15.902c26.443 26.865 39.695 40.358 83.607 40.358 43.972 0 57.163-13.493 83.546-40.478l8.072-8.072 7.529-7.71c30.961-31.503 66.078-67.283 147.215-67.283 81.197 0 116.314 35.84 147.275 67.464l7.529 7.529 8.072 8.192c26.383 26.865 39.635 40.358 83.546 40.358 43.972 0 57.224-13.493 83.546-40.418l8.072-8.132 7.59-7.71c30.961-31.503 66.078-67.283 147.215-67.283 81.257 0 116.314 35.78 147.215 67.403l7.529 7.59 8.072 8.192c26.443 26.865 39.695 40.358 83.607 40.358 24.937 0 45.176 20.721 45.176 46.261 0 25.6-20.239 46.381-45.176 46.381-81.197 0-116.254-35.78-147.215-67.223l-7.59-7.77-8.072-8.132c-26.383-26.865-39.635-40.358-83.546-40.358s-57.163 13.493-83.546 40.297l-8.072 8.192-7.59 7.59c-13.252 13.613-27.708 27.889-45.899 39.816v475.256c0 42.586 33.732 77.161 75.294 77.161s75.294-34.575 75.294-77.222c0-25.54 20.239-46.261 45.176-46.261s45.176 20.721 45.176 46.261c0 93.666-74.27 169.864-165.647 169.864s-165.647-76.198-165.647-169.864v-108.002h-331.294v108.002c0 42.647 33.732 77.222 75.294 77.222s75.294-34.575 75.294-77.222c0-25.54 20.239-46.261 45.176-46.261s45.176 20.721 45.176 46.261c0 93.666-74.27 169.864-165.647 169.864s-165.647-76.198-165.647-169.864v-464.535c-21.203 10.12-47.224 16.866-82.101 16.866-81.197 0-116.254-35.72-147.215-67.162l-7.59-7.77-8.132-8.192c-26.383-26.805-39.635-40.358-83.486-40.358-43.972 0-57.224 13.553-83.607 40.358l-8.072 8.192c-17.83 17.83-46.381 17.589-63.849-0.723s-17.107-47.586 0.723-65.476l7.59-7.71zM1400.471 152.124c-81.197 0-116.254-35.78-147.215-67.223l-15.661-15.902c-26.383-26.865-39.635-40.358-83.546-40.358s-57.163 13.493-83.546 40.358l-8.072 8.192-7.59 7.59c-30.901 31.563-65.958 67.343-147.215 67.343-81.137 0-116.254-35.78-147.215-67.223l-7.59-7.71-8.011-8.072c-26.383-26.985-39.635-40.478-83.607-40.478-43.912 0-57.163 13.493-83.546 40.358l-8.072 8.192-7.469 7.529c-30.961 31.563-66.138 67.403-147.275 67.403-81.197 0-116.254-35.78-147.215-67.223l-15.721-15.962c-26.383-26.805-39.635-40.358-83.486-40.358-43.972 0-57.224 13.553-83.607 40.358l-8.072 8.252c-17.83 17.83-46.381 17.528-63.849-0.783s-17.107-47.586 0.723-65.416l7.59-7.71c30.961-31.503 66.018-67.283 147.215-67.283 81.137 0 116.194 35.78 147.155 67.283l15.661 15.902c26.443 26.805 39.695 40.358 83.607 40.358 43.972 0 57.163-13.553 83.546-40.478l8.072-8.072 7.529-7.71c30.961-31.503 66.078-67.283 147.215-67.283 81.197 0 116.314 35.84 147.275 67.464l7.529 7.529 8.072 8.192c26.383 26.805 39.635 40.358 83.546 40.358 43.972 0 57.224-13.553 83.546-40.418l8.072-8.132 7.59-7.71c30.961-31.503 66.078-67.283 147.215-67.283 81.257 0 116.314 35.78 147.215 67.343l15.601 15.842c26.443 26.805 39.695 40.358 83.607 40.358 24.937 0 45.176 20.721 45.176 46.261 0 25.6-20.239 46.321-45.176 46.321z" />
<glyph unicode="&#xe939;" glyph-name="icon3" horiz-adv-x="975" d="M934.229 390.754l-189.976-52.565-192.024 109.812 192.024 109.861 189.976-52.565c2.926-0.829 5.851-1.17 8.728-1.17 14.092 0 27.112 9.265 31.11 23.357 4.779 17.018-5.315 34.621-22.43 39.497l-129.024 35.694 100.742 57.637c15.458 8.826 20.773 28.379 11.849 43.691-8.875 15.262-28.672 20.626-44.13 11.703l-100.791-57.637 33.304 128.585c4.389 17.164-5.998 34.621-23.259 39.010-17.067 4.145-34.914-5.851-39.351-23.064l-49.006-189.294-192.024-109.861v219.721l140.922 136.631c12.727 12.386 12.971 32.67 0.488 45.251-12.532 12.678-32.963 12.873-45.69 0.488l-95.72-92.794v115.273c0 17.652-14.482 31.988-32.329 31.988s-32.28-14.336-32.28-31.988v-115.322l-95.817 92.891c-12.678 12.337-33.207 12.142-45.69-0.488-12.483-12.678-12.19-32.914 0.488-45.3l141.019-136.631v-219.721l-192.122 109.861-48.957 189.294c-4.437 17.164-22.235 27.307-39.302 23.016-17.31-4.389-27.697-21.797-23.259-38.961l33.256-128.585-100.791 57.685c-15.506 8.875-35.255 3.511-44.081-11.752-8.972-15.311-3.657-34.865 11.8-43.691l100.742-57.637-128.975-35.742c-17.164-4.779-27.258-22.43-22.43-39.497 3.95-14.092 16.969-23.308 31.11-23.308 2.877 0 5.803 0.341 8.728 1.17l189.928 52.565 192.024-109.861-192.024-109.812-189.928 52.565c-17.213 4.779-35.060-5.169-39.838-22.187-4.827-17.067 5.266-34.621 22.43-39.497l128.975-35.694-100.742-57.637c-15.458-8.875-20.773-28.428-11.8-43.739 5.949-10.24 16.823-15.994 27.989-15.994 5.461 0 11.020 1.365 16.091 4.291l100.791 57.637-33.256-128.585c-4.389-17.115 5.949-34.621 23.259-38.961 2.682-0.683 5.364-0.975 8.046-0.975 14.385 0 27.55 9.557 31.256 24.040l49.006 189.294 192.073 109.861v-219.77l-140.971-136.631c-12.727-12.386-13.019-32.67-0.488-45.251 6.339-6.437 14.677-9.655 23.064-9.655 8.192 0 16.335 3.072 22.577 9.118l95.817 92.891v-115.322c0-17.652 14.434-31.988 32.28-31.988s32.329 14.336 32.329 31.988v115.322l95.72-92.891c6.29-6.046 14.434-9.118 22.626-9.118 8.338 0 16.725 3.218 23.064 9.655 12.483 12.581 12.239 32.866-0.488 45.251l-140.922 136.631v219.77l192.024-109.861 49.006-189.294c3.755-14.482 16.872-24.040 31.256-24.040 2.682 0 5.364 0.293 8.094 0.975 17.262 4.389 27.648 21.845 23.259 38.961l-33.304 128.585 100.791-57.637c5.12-2.926 10.63-4.291 16.091-4.291 11.215 0 22.040 5.754 28.038 15.994 8.923 15.311 3.608 34.865-11.849 43.739l-100.742 57.637 129.024 35.742c17.115 4.779 27.209 22.382 22.43 39.448-4.827 16.969-22.577 26.917-39.838 22.187z" />
<glyph unicode="&#xe93a;" glyph-name="info" d="M460.8 601.6h102.4v102.4h-102.4v-102.4zM460.8 192h102.4v307.2h-102.4v-307.2zM511.488-64c-282.624 0-511.488 229.376-511.488 512s228.864 512 511.488 512c283.136 0 512.512-229.376 512.512-512s-229.376-512-512.512-512zM512 857.6c-226.304 0-409.6-183.296-409.6-409.6s183.296-409.6 409.6-409.6 409.6 183.296 409.6 409.6-183.296 409.6-409.6 409.6z" />
<glyph unicode="&#xe93b;" glyph-name="invitation" horiz-adv-x="896" d="M688 384h-240v-240h240v240zM640 912v-96h-384v96h-96v-96h-48c-53.312 0-95.552-43.2-95.552-96l-0.448-672c0-52.8 42.688-96 96-96h672c52.8 0 96 43.2 96 96v672c0 52.8-43.2 96-96 96h-48v96h-96zM784 48h-672v528h672v-528z" />
<glyph unicode="&#xe93c;" glyph-name="laptop" horiz-adv-x="1186" d="M209.974 885.895h765.736c20.426 0 37.080-16.653 37.080-37.080v-531.079h-839.896v531.079c0 20.48 16.707 37.080 37.080 37.080zM462.417 83.079h260.743l12.396-37.026h-285.534l12.396 37.026zM1074.499 46.053h-286.882l-23.175 69.524c-0.108 0.377-0.377 0.539-0.539 0.916-0.593 1.671-1.617 3.072-2.587 4.527-0.808 1.24-1.401 2.533-2.371 3.557-1.132 1.24-2.587 2.048-3.934 3.018-1.24 0.862-2.317 1.832-3.665 2.533-1.347 0.593-2.856 0.808-4.312 1.186-1.671 0.431-3.341 0.916-5.12 1.024-0.323 0-0.539 0.162-0.916 0.162l-297.391-0.162c-1.617-0.108-3.072-0.539-4.635-0.97-1.617-0.377-3.288-0.647-4.797-1.347-1.132-0.539-2.048-1.347-3.072-2.048-1.617-1.078-3.234-2.048-4.527-3.449-0.862-0.916-1.401-2.156-2.156-3.234-1.078-1.509-2.156-3.018-2.803-4.851l-0.485-0.808-23.175-69.578h-286.774c-18.216 0-32.768 13.474-35.84 30.828l83.429 166.75h868.136l83.429-166.75c-3.072-17.354-17.624-30.828-35.84-30.828zM1185.415 84.211c-0.054 2.479-0.916 4.851-1.509 7.33-0.539 2.371-0.862 4.851-1.886 7.006-0.162 0.377-0.108 0.755-0.269 1.078l-94.909 189.817v559.427c0.054 61.278-49.907 111.131-111.131 111.131h-765.736c-61.278 0-111.185-49.853-111.185-111.185v-559.427l-94.855-189.709c-0.216-0.377-0.162-0.755-0.323-1.078-1.024-2.264-1.347-4.689-1.94-7.114-0.539-2.425-1.401-4.851-1.455-7.276 0-0.377-0.216-0.701-0.216-1.078 0-61.278 49.907-111.185 111.185-111.185h963.368c61.224 0 111.131 49.853 111.131 111.131 0 0.431-0.216 0.701-0.216 1.078zM1000.448 206.552h-815.158c-13.689 0-24.738-10.995-24.738-24.63s11.048-24.738 24.684-24.738h815.212c13.635 0 24.684 11.102 24.684 24.738s-11.048 24.684-24.738 24.684zM473.465 530.459c-14.444-14.444-14.444-37.942 0-52.44 14.498-14.444 37.942-14.444 52.386 0 36.972 36.918 97.011 36.918 133.982 0 7.222-7.222 16.707-10.779 26.193-10.779s18.917 3.557 26.193 10.779c14.444 14.498 14.444 37.996 0 52.44-65.805 65.752-172.948 65.752-238.754 0zM592.842 689.664c-74.375 0-144.33-28.941-196.985-81.597-14.498-14.498-14.498-37.942 0-52.386 14.498-14.498 37.942-14.498 52.386 0 79.71 79.71 209.489 79.71 289.199 0 7.222-7.276 16.707-10.887 26.193-10.887s18.971 3.611 26.193 10.887c14.498 14.444 14.498 37.888 0 52.386-52.655 52.655-122.611 81.597-196.985 81.597zM370.634 633.29c122.557 122.557 321.859 122.557 444.416 0 7.222-7.222 16.707-10.833 26.193-10.833 9.539 0 18.971 3.611 26.193 10.779 14.498 14.552 14.498 37.996 0 52.44-151.39 151.39-397.797 151.39-549.187 0-14.498-14.444-14.498-37.888 0-52.386 14.444-14.444 37.888-14.444 52.386 0zM561.799 442.125c-17.139-17.139-17.139-44.948 0-62.087s44.948-17.139 62.087 0c17.139 17.139 17.139 44.948 0 62.087-17.139 17.192-44.948 17.192-62.087 0z" />
<glyph unicode="&#xe93d;" glyph-name="uniE93D" horiz-adv-x="866" d="M321.772 257.772c61.44-61.44 161.477-61.44 222.917 0s61.44 161.477 0 222.917l-222.917-222.917zM669.538 841.452l-472.615 0.394c-43.717 0-78.769-35.052-78.769-78.769v-630.154c0-43.717 35.052-78.769 78.769-78.769h472.615c43.717 0 78.769 35.052 78.769 78.769v630.154c0 43.717-35.052 78.375-78.769 78.375zM354.462 763.077c21.662 0 39.385-17.723 39.385-39.385s-17.723-39.385-39.385-39.385-39.385 17.723-39.385 39.385 17.723 39.385 39.385 39.385zM236.308 763.077c21.662 0 39.385-17.723 39.385-39.385s-17.723-39.385-39.385-39.385-39.385 17.723-39.385 39.385 17.723 39.385 39.385 39.385zM433.231 132.923c-130.363 0-236.308 105.945-236.308 236.308s105.945 236.308 236.308 236.308 236.308-105.945 236.308-236.308-105.945-236.308-236.308-236.308z" />
<glyph unicode="&#xe93e;" glyph-name="uniE93E" horiz-adv-x="866" d="M321.772 257.772c61.44-61.44 161.477-61.44 222.917 0s61.44 161.477 0 222.917l-222.917-222.917zM669.538 841.452l-472.615 0.394c-43.717 0-78.769-35.052-78.769-78.769v-630.154c0-43.717 35.052-78.769 78.769-78.769h472.615c43.717 0 78.769 35.052 78.769 78.769v630.154c0 43.717-35.052 78.375-78.769 78.375zM354.462 763.077c21.662 0 39.385-17.723 39.385-39.385s-17.723-39.385-39.385-39.385-39.385 17.723-39.385 39.385 17.723 39.385 39.385 39.385zM236.308 763.077c21.662 0 39.385-17.723 39.385-39.385s-17.723-39.385-39.385-39.385-39.385 17.723-39.385 39.385 17.723 39.385 39.385 39.385zM433.231 132.923c-130.363 0-236.308 105.945-236.308 236.308s105.945 236.308 236.308 236.308 236.308-105.945 236.308-236.308-105.945-236.308-236.308-236.308z" />
<glyph unicode="&#xe93f;" glyph-name="location-on" horiz-adv-x="768" d="M384 928c-185.728 0-336-150.272-336-336 0-252.032 336-624 336-624s336 372.032 336 624c0 185.728-150.272 336-336 336zM384 472c-66.24 0-120 53.76-120 120s53.76 120 120 120c66.24 0 120-53.76 120-120s-53.76-120-120-120z" />
<glyph unicode="&#xe940;" glyph-name="lock" horiz-adv-x="755" d="M646.737 600.684h-44.894v89.843c0 123.958-100.621 224.579-224.579 224.579s-224.579-100.621-224.579-224.579v-89.843h-44.894c-49.421 0-89.843-40.421-89.843-89.789v-449.159c0-49.368 40.421-89.789 89.843-89.789h538.947c49.421 0 89.843 40.421 89.843 89.789v449.159c0 49.368-40.421 89.789-89.843 89.789zM516.473 600.684h-278.42v89.843c0 76.8 62.41 139.21 139.21 139.21s139.21-62.41 139.21-139.21v-89.843z" />
<glyph unicode="&#xe941;" glyph-name="lock2" horiz-adv-x="569" d="M479.516-7.111h-390.201c-17.863 0-32.484 14.62-32.484 32.484v325.12c0 59.335 59.506 87.040 157.582 125.611l33.735 13.312c93.184 36.693 198.77 78.222 198.77 186.14 0 89.6-72.932 162.532-162.532 162.532s-162.532-72.932-162.532-162.532c0-17.92-14.62-32.484-32.54-32.484-17.863 0-32.484 14.564-32.484 32.484 0 125.44 102.116 227.556 227.556 227.556s227.556-102.116 227.556-227.556v-650.183c0-17.863-14.62-32.484-32.484-32.484z" />
<glyph unicode="&#xe942;" glyph-name="mail" horiz-adv-x="1317" d="M1145.929 935.643h-975.287c-66.999 0-121.271-54.857-121.271-121.929l-0.585-731.429c0-67.072 54.857-121.929 121.856-121.929h975.287c66.999 0 121.856 54.857 121.856 121.929v731.429c0 67.072-54.857 121.929-121.856 121.929zM1145.929 691.785l-487.643-304.713-487.643 304.713v121.929l487.643-304.786 487.643 304.786v-121.929z" />
<glyph unicode="&#xe943;" glyph-name="parking" horiz-adv-x="975" d="M485.912 474.088h-89.722v223.476h89.722c73.777 0 133.754-50.127 133.754-111.762 0-61.586-59.977-111.714-133.754-111.714zM485.912 758.516h-120.198c-16.823 0-30.476-13.653-30.476-30.476v-518.095c0-16.823 13.653-30.476 30.476-30.476s30.476 13.653 30.476 30.476v203.191h89.722c107.374 0 194.706 77.434 194.706 172.666 0 95.281-87.284 172.715-194.706 172.715zM863.476 42.301h-751.714c-28.038 0-50.81 22.821-50.81 50.81v751.811c0 27.989 22.772 50.81 50.81 50.81h751.714c28.038 0 50.81-22.821 50.81-50.81v-751.762c0-27.989-22.772-50.761-50.81-50.761zM863.476 956.587h-751.714c-61.635 0-111.762-50.030-111.762-111.665v-751.762c0-61.635 50.127-111.714 111.762-111.714h751.714c61.635 0 111.762 50.078 111.762 111.714v751.762c0 61.586-50.127 111.714-111.762 111.714z" />
<glyph unicode="&#xe944;" glyph-name="uniE944" horiz-adv-x="960" d="M477.28 855.296c-129.28 0-185.76-106.432-185.76-218.336 0-137.92 85.824-206.4 85.824-254.176 0-20.64-15.2-42.368-48.896-59.744l-188.992-101.024c-56.48-30.4-33.664-174.912-33.664-174.912h741.888s27.136 143.392-33.696 174.912l-188.992 101.024c-34.752 18.464-51.072 39.104-51.072 57.568 0 42.368 88 108.64 88 257.44 0 131.456-68.448 217.28-184.64 217.28z" />
<glyph unicode="&#xe945;" glyph-name="uniE945" horiz-adv-x="960" d="M477.28 855.296c-129.28 0-185.76-106.432-185.76-218.336 0-137.92 85.824-206.4 85.824-254.176 0-20.64-15.2-42.368-48.896-59.744l-188.992-101.024c-56.48-30.4-33.664-174.912-33.664-174.912h741.888s27.136 143.392-33.696 174.912l-188.992 101.024c-34.752 18.464-51.072 39.104-51.072 57.568 0 42.368 88 108.64 88 257.44 0 131.456-68.448 217.28-184.64 217.28z" />
<glyph unicode="&#xe946;" glyph-name="pets" horiz-adv-x="1126" d="M404.992 888.32c34.867 0 73.83-56.73 73.83-138.138 0-81.459-38.912-138.24-73.882-138.24-34.918 0-73.882 56.781-73.882 138.24 0 81.408 38.963 138.138 73.882 138.138zM404.992 542.106c80.845 0 144.23 91.392 144.23 208.077 0 116.634-63.334 207.974-144.23 207.974s-144.333-91.341-144.333-207.974c0-116.736 63.437-208.077 144.282-208.077zM721.408 888.32c35.021 0 73.933-56.73 73.933-138.138 0-81.459-38.912-138.24-73.882-138.24-34.918 0-73.882 56.781-73.882 138.24 0 81.408 38.912 138.138 73.882 138.138zM721.408 542.106c80.947 0 144.384 91.392 144.384 208.077 0 116.634-63.437 207.974-144.384 207.974-80.896 0-144.23-91.341-144.23-207.974 0-116.736 63.334-208.077 144.282-208.077zM982.118 363.11c-34.97 0-73.933 56.73-73.933 138.189 0 81.408 38.963 138.138 73.933 138.138 34.918 0 73.882-56.678 73.882-138.138s-38.912-138.24-73.882-138.24zM982.118 709.274c-80.896 0-144.333-91.341-144.333-207.974s63.437-208.026 144.333-208.026c80.896 0 144.282 91.392 144.282 208.026s-63.386 207.974-144.282 207.974zM144.333 363.11c-34.918 0-73.933 56.73-73.933 138.189 0 81.408 39.014 138.138 73.933 138.138 34.867 0 73.882-56.678 73.882-138.138s-39.014-138.24-73.882-138.24zM288.614 501.248c0 116.634-63.437 207.974-144.282 207.974-80.896 0.051-144.333-91.29-144.333-207.923s63.386-208.026 144.333-208.026c80.896 0 144.282 91.392 144.282 208.026zM816.23 41.677c-15.36-10.547-30.413-13.414-42.24-8.909-57.651 25.6-128.563 38.605-210.79 38.605-106.854 0-174.234-24.986-203.008-35.686l-3.226-1.28c-18.79-5.325-36.71-1.946-53.248 10.291-27.187 20.326-46.234 61.235-46.234 99.584v7.168c-0.205 14.541-0.307 20.019 6.912 30.72l140.288 213.146c34.202 45.158 93.44 72.141 158.515 72.141 64.512 0 123.392-26.522 157.696-71.014l141.312-213.402c6.451-10.342 6.707-19.866 6.707-38.707 0-37.888-22.63-81.971-52.685-102.605zM779.11 435.763l-1.331 1.894c-47.462 62.31-127.693 99.533-214.579 99.533-87.040 0-167.373-37.376-216.115-101.734l-141.466-214.886c-19.098-28.416-18.79-51.507-18.534-70.093v-6.144c0-60.826 29.235-121.856 74.394-155.443 34.253-25.446 75.162-33.178 117.35-20.787l6.042 2.202c25.19 9.318 84.173 31.232 178.33 31.232 72.192 0 133.427-10.906 183.962-33.28 12.698-4.762 25.754-7.168 38.861-7.168 23.859 0 47.974 7.885 70.298 23.194 48.845 33.536 82.995 99.328 82.995 160 0 22.374 0 47.667-17.664 76.134l-142.541 215.347z" />
<glyph unicode="&#xe947;" glyph-name="uniE947" horiz-adv-x="1109" d="M981.333 64c-47.36 0-73.813 15.787-93.013 27.307-15.787 9.387-25.6 15.36-49.067 15.36-23.893 0-33.28-5.547-49.067-15.36-19.627-11.52-45.653-27.307-93.013-27.307s-73.813 15.787-93.013 27.307c-15.787 9.387-25.6 15.36-49.067 15.36-23.893 0-33.28-5.547-49.067-15.36-19.627-11.52-46.080-27.307-93.44-27.307s-73.813 15.787-93.013 27.307c-15.787 9.813-25.6 15.36-49.067 15.36s-33.28-5.547-49.067-15.36c-19.627-11.52-46.080-27.307-93.44-27.307v85.333c23.893 0 33.28 5.547 49.067 15.36 19.627 11.52 46.080 27.307 93.44 27.307s73.813-15.787 93.013-27.307c15.787-9.813 25.173-15.36 49.067-15.36s33.28 5.547 49.067 15.36c19.627 11.52 46.080 27.307 93.44 27.307s73.813-15.787 93.013-27.307c15.787-9.387 25.6-15.36 49.067-15.36s33.28 5.547 49.067 15.36c19.2 11.52 45.653 27.307 93.013 27.307s73.813-15.787 93.013-27.307c15.787-9.813 25.173-15.36 49.067-15.36v-85.333zM981.333 256c-47.36 0-73.813 15.787-93.013 27.307-15.787 9.387-25.6 15.36-49.067 15.36-23.893 0-33.28-5.547-49.067-15.36-19.2-11.52-45.653-27.307-93.013-27.307s-73.813 15.787-93.013 27.307c-15.787 9.387-25.6 15.36-49.067 15.36-23.893 0-33.28-5.547-49.067-15.36-19.2-11.52-45.653-27.307-93.013-27.307s-73.813 15.787-93.013 27.307c-15.787 9.387-25.6 15.36-49.067 15.36s-33.28-5.547-49.067-15.36c-20.053-11.52-46.507-27.307-93.867-27.307v85.333c23.893 0 33.28 5.547 49.067 15.36 19.2 11.52 45.653 27.307 93.013 27.307s73.813-15.787 93.013-27.307c15.787-9.387 25.6-15.36 49.067-15.36 23.893 0 33.28 5.547 49.067 15.36 19.2 11.52 45.653 27.307 93.013 27.307s73.813-15.787 93.013-27.307c15.787-9.387 25.6-15.36 49.067-15.36s33.28 5.547 49.067 15.36c19.2 11.52 45.653 27.307 93.013 27.307s73.813-15.787 93.013-27.307c15.787-9.387 25.6-15.36 49.067-15.36v-85.333h0.853zM412.587 448c23.893 0 33.28 5.547 49.067 15.36 19.627 11.52 46.080 27.307 93.44 27.307s73.813-15.787 93.013-27.307c15.787-9.387 25.6-15.36 49.067-15.36s33.28 5.547 49.067 15.36c5.12 2.987 11.093 6.4 17.493 9.813l-273.92 273.493c-66.133 66.133-127.147 85.76-233.813 85.333v-106.667c77.653 0.427 123.307-16.64 170.667-64l42.667-42.667-138.667-138.667c13.227-5.12 23.893-11.52 32.853-16.64 15.787-9.813 25.173-15.36 49.067-15.36z" />
<glyph unicode="&#xe948;" glyph-name="uniE948" horiz-adv-x="1109" d="M981.333 64c-47.36 0-73.813 15.787-93.013 27.307-15.787 9.387-25.6 15.36-49.067 15.36-23.893 0-33.28-5.547-49.067-15.36-19.627-11.52-45.653-27.307-93.013-27.307s-73.813 15.787-93.013 27.307c-15.787 9.387-25.6 15.36-49.067 15.36-23.893 0-33.28-5.547-49.067-15.36-19.627-11.52-46.080-27.307-93.44-27.307s-73.813 15.787-93.013 27.307c-15.787 9.813-25.6 15.36-49.067 15.36s-33.28-5.547-49.067-15.36c-19.627-11.52-46.080-27.307-93.44-27.307v85.333c23.893 0 33.28 5.547 49.067 15.36 19.627 11.52 46.080 27.307 93.44 27.307s73.813-15.787 93.013-27.307c15.787-9.813 25.173-15.36 49.067-15.36s33.28 5.547 49.067 15.36c19.627 11.52 46.080 27.307 93.44 27.307s73.813-15.787 93.013-27.307c15.787-9.387 25.6-15.36 49.067-15.36s33.28 5.547 49.067 15.36c19.2 11.52 45.653 27.307 93.013 27.307s73.813-15.787 93.013-27.307c15.787-9.813 25.173-15.36 49.067-15.36v-85.333zM981.333 256c-47.36 0-73.813 15.787-93.013 27.307-15.787 9.387-25.6 15.36-49.067 15.36-23.893 0-33.28-5.547-49.067-15.36-19.2-11.52-45.653-27.307-93.013-27.307s-73.813 15.787-93.013 27.307c-15.787 9.387-25.6 15.36-49.067 15.36-23.893 0-33.28-5.547-49.067-15.36-19.2-11.52-45.653-27.307-93.013-27.307s-73.813 15.787-93.013 27.307c-15.787 9.387-25.6 15.36-49.067 15.36s-33.28-5.547-49.067-15.36c-20.053-11.52-46.507-27.307-93.867-27.307v85.333c23.893 0 33.28 5.547 49.067 15.36 19.2 11.52 45.653 27.307 93.013 27.307s73.813-15.787 93.013-27.307c15.787-9.387 25.6-15.36 49.067-15.36 23.893 0 33.28 5.547 49.067 15.36 19.2 11.52 45.653 27.307 93.013 27.307s73.813-15.787 93.013-27.307c15.787-9.387 25.6-15.36 49.067-15.36s33.28 5.547 49.067 15.36c19.2 11.52 45.653 27.307 93.013 27.307s73.813-15.787 93.013-27.307c15.787-9.387 25.6-15.36 49.067-15.36v-85.333h0.853zM412.587 448c23.893 0 33.28 5.547 49.067 15.36 19.627 11.52 46.080 27.307 93.44 27.307s73.813-15.787 93.013-27.307c15.787-9.387 25.6-15.36 49.067-15.36s33.28 5.547 49.067 15.36c5.12 2.987 11.093 6.4 17.493 9.813l-273.92 273.493c-66.133 66.133-127.147 85.76-233.813 85.333v-106.667c77.653 0.427 123.307-16.64 170.667-64l42.667-42.667-138.667-138.667c13.227-5.12 23.893-11.52 32.853-16.64 15.787-9.813 25.173-15.36 49.067-15.36z" />
<glyph unicode="&#xe949;" glyph-name="uniE949" horiz-adv-x="1109" d="M853.333 725.333c0-58.91-47.756-106.667-106.667-106.667s-106.667 47.756-106.667 106.667c0 58.91 47.756 106.667 106.667 106.667s106.667-47.756 106.667-106.667z" />
<glyph unicode="&#xe94a;" glyph-name="uniE94A" horiz-adv-x="1109" d="M853.333 725.333c0-58.91-47.756-106.667-106.667-106.667s-106.667 47.756-106.667 106.667c0 58.91 47.756 106.667 106.667 106.667s106.667-47.756 106.667-106.667z" />
<glyph unicode="&#xe94b;" glyph-name="printer" horiz-adv-x="1152" d="M949.312 661.312h-746.624c-88.576 0-160-71.424-160-160v-320h213.312v-213.312h640v213.312h213.312v320c0 88.576-71.424 160-160 160zM789.312 74.688h-426.624v266.624h426.624v-266.624zM949.312 448c-29.312 0-53.312 24-53.312 53.312 0 29.376 24 53.376 53.312 53.376 29.376 0 53.376-24 53.376-53.376 0-29.312-24-53.312-53.376-53.312zM896 928h-640v-213.312h640v213.312z" />
<glyph unicode="&#xe94c;" glyph-name="quote" horiz-adv-x="1229" d="M982.323 464.179c17.101 135.373 62.771 254.157 135.68 357.581 3.686 5.12 2.867 12.288-1.741 16.384l-128.205 115.61c-5.018 4.506-12.698 4.096-17.101-1.024-168.653-190.669-286.72-383.59-286.72-649.216v-354.406c0-6.963 5.939-13.107 13.107-13.107h518.451c7.168 0 13.005 5.939 13.005 13.312v501.76c0 7.168-5.837 13.107-13.005 13.107h-233.472zM298.496 464.179c17.101 135.373 62.771 254.157 135.68 357.581 3.584 5.12 2.867 12.288-1.843 16.384l-128.205 115.61c-4.915 4.506-12.595 4.096-17.101-1.024-168.653-190.669-286.72-383.59-286.72-649.216v-354.406c0-7.168 5.939-13.21 13.005-13.21h518.656c7.168 0 13.107 5.939 13.107 13.312v501.76c0 7.168-5.939 13.107-13.107 13.107h-233.472z" />
<glyph unicode="&#xe94d;" glyph-name="uniE94D" horiz-adv-x="910" d="M639.204 540.729s39.671 244.205-71.718 238.213c-16.612 24.273-47.332 47.407-116.053 47.407-244.471 0-182.727-276.708-182.727-276.708v-0.114c-5.765-8.609-9.292-19.342-9.785-31.858-1.062-27.496 13.729-57.837 43.387-65.233 7.509-36.636 42.97-145.56 149.163-145.56 106.231 0 141.691 108.923 149.239 145.56 29.544 7.396 44.373 37.698 43.349 65.233-0.341 8.495-2.124 16.194-5.006 23.021h0.152z" />
<glyph unicode="&#xe94e;" glyph-name="uniE94E" horiz-adv-x="910" d="M639.204 540.729s39.671 244.205-71.718 238.213c-16.612 24.273-47.332 47.407-116.053 47.407-244.471 0-182.727-276.708-182.727-276.708v-0.114c-5.765-8.609-9.292-19.342-9.785-31.858-1.062-27.496 13.729-57.837 43.387-65.233 7.509-36.636 42.97-145.56 149.163-145.56 106.231 0 141.691 108.923 149.239 145.56 29.544 7.396 44.373 37.698 43.349 65.233-0.341 8.495-2.124 16.194-5.006 23.021h0.152z" />
<glyph unicode="&#xe94f;" glyph-name="uniE94F" horiz-adv-x="910" d="M622.82 273.996l-105.927-130.996-24.766 62.123c9.785 3.034 17.105 11.757 17.105 22.566v22.49c0 13.16-10.733 23.817-23.893 23.817h-67.736c-13.198 0-23.817-10.619-23.817-23.817v-22.49c0-11.492 8.116-20.594 18.849-22.907l-25.297-63.412-107.179 132.627c-66.56-17.218-162.475-53.893-162.475-104.676v-107.179h667.534v107.179c0 50.745-95.991 87.457-162.437 104.676z" />
<glyph unicode="&#xe950;" glyph-name="uniE950" horiz-adv-x="910" d="M622.82 273.996l-105.927-130.996-24.766 62.123c9.785 3.034 17.105 11.757 17.105 22.566v22.49c0 13.16-10.733 23.817-23.893 23.817h-67.736c-13.198 0-23.817-10.619-23.817-23.817v-22.49c0-11.492 8.116-20.594 18.849-22.907l-25.297-63.412-107.179 132.627c-66.56-17.218-162.475-53.893-162.475-104.676v-107.179h667.534v107.179c0 50.745-95.991 87.457-162.437 104.676z" />
<glyph unicode="&#xe951;" glyph-name="rounded-plain-white" d="M141.068 310.004c-15.945 42.959-24.722 89.478-24.722 137.996 0 218.502 177.152 395.654 395.654 395.654 218.453 0 395.605-177.152 395.605-395.654 0-218.453-177.103-395.605-395.605-395.605-96.11 0-184.222 34.28-252.782 91.234 107.959 75.24 205.434 169.691 239.762 229.181l48.030-161.841c4.584-13.166 23.65-16.579 34.377-4.291l38.522 42.764c3.852 4.096 5.169 9.265 5.608 14.482l-3.023 196.364c-0.39 0.488 0.049 0.829-0.341 1.317 89.429 82.31 92.648 118.979 72.704 142.677-19.895 23.747-56.076 27.307-153.064-45.934l-0.878 0.049-193.78 36.328c-4.73 0.829-10.533 0-15.214-3.072l-48.811-30.476c-13.946-8.436-13.848-27.794 0-34.718l135.558-68.998-45.495-20.724c-74.216-46.080-151.942-88.747-232.058-126.732zM171.301 246.76c93.574 44.958 176.079 91.526 242.152 132.584-11.8-33.158-81.286-107.959-202.167-188.465-14.872 17.408-28.282 36.084-39.985 55.881zM512-17.432c257.073 0 465.432 208.36 465.432 465.432s-208.36 465.432-465.432 465.432-465.432-208.36-465.432-465.432 208.36-465.432 465.432-465.432zM512-64c-282.77 0-512 229.23-512 512s229.23 512 512 512 512-229.23 512-512-229.23-512-512-512z" />
<glyph unicode="&#xe952;" glyph-name="rounded-plain" d="M63.057 280.926c-19.402 52.008-29.965 108.328-29.965 167.074 0 264.408 214.447 478.909 478.909 478.909 264.515 0 478.963-214.447 478.963-478.909 0-264.515-214.447-478.963-478.963-478.963-116.305 0-222.963 41.499-305.96 110.484 130.695 91.082 248.724 205.339 290.223 277.342l58.206-195.8c5.497-15.953 28.564-20.103 41.553-5.228l46.619 51.739c4.689 4.958 6.252 11.21 6.845 17.57l-3.719 237.676c-0.485 0.539 0.108 1.078-0.377 1.617 108.221 99.651 112.101 144.007 88.010 172.733s-67.907 33.091-185.29-55.673l-1.078 0.108-234.55 43.924c-5.767 1.078-12.773 0.054-18.432-3.665l-59.069-36.918c-16.869-10.24-16.815-33.63 0-42.038l164.056-83.483-55.080-25.115c-89.789-55.781-183.889-107.412-280.845-153.384zM99.597 204.342c113.287 54.434 213.208 110.808 293.187 160.499-14.336-40.098-98.466-130.695-244.79-228.083-18.001 21.019-34.223 43.655-48.397 67.584z" />
<glyph unicode="&#xe953;" glyph-name="rounded-tick" d="M429.056 349.355l-107.861 106.155-36.75-35.897 144.612-142.279 310.5 305.436-36.466 35.897zM511.488 960c-282.624 0-511.488-229.376-511.488-512s228.864-512 511.488-512c283.136 0 512.512 229.376 512.512 512s-229.376 512-512.512 512zM512 38.4c-226.304 0-409.6 183.296-409.6 409.6s183.296 409.6 409.6 409.6 409.6-183.296 409.6-409.6-183.296-409.6-409.6-409.6z" />
<glyph unicode="&#xe954;" glyph-name="uniE954" horiz-adv-x="1222" d="M1064.531 612.302h-66.428l-42.876 133.946c-22.462 68.575-85.719 114.655-157.498 114.655h-379.309c-71.812 0-136.093-46.080-157.531-114.622l-42.843-133.979h-66.461c-28.903 0-52.488-23.552-52.488-52.521v-29.993c0-28.903 23.585-52.488 52.521-52.488h18.168c-10.669-48.227-16.054-97.511-16.054-146.795v-251.805c0-28.936 23.585-52.521 52.521-52.521h87.866c28.936 0 52.521 23.585 52.521 52.521v80.367h525.015v-80.367c0-28.936 23.585-52.521 52.521-52.521h87.866c28.903 0 52.521 23.585 52.521 52.521v252.862c0 49.317-5.384 98.601-16.087 146.795h18.201c28.936 0 52.521 23.585 52.521 52.521v29.993c-2.147 27.879-25.732 51.431-54.668 51.431zM310.173 558.724l50.374 156.441c8.588 25.732 32.14 42.876 57.873 42.876h379.309c26.756 0 50.374-17.177 57.873-42.876l50.341-156.441c2.147-7.498-3.204-13.907-10.702-13.907h-574.332c-7.498-1.090-12.883 6.408-10.735 13.907zM419.51 302.658h-106.1c-18.234 0-32.14 13.907-32.14 32.14v50.341c0 19.291 18.201 35.345 37.492 32.14l98.568-16.054c12.883-2.147 23.585-11.793 26.789-24.642l7.498-34.287c4.294-20.381-10.702-39.639-32.14-39.639zM933.822 334.798c0-18.234-13.94-32.14-32.173-32.14h-106.034c-20.381 0-35.378 19.258-31.116 38.549l7.498 34.287c3.237 12.883 12.883 22.528 26.789 24.642l98.601 16.087c19.291 3.204 37.492-11.793 37.492-32.14v-49.284h-1.057z" />
<glyph unicode="&#xe955;" glyph-name="uniE955" horiz-adv-x="1222" d="M1064.531 612.302h-66.428l-42.876 133.946c-22.462 68.575-85.719 114.655-157.498 114.655h-379.309c-71.812 0-136.093-46.080-157.531-114.622l-42.843-133.979h-66.461c-28.903 0-52.488-23.552-52.488-52.521v-29.993c0-28.903 23.585-52.488 52.521-52.488h18.168c-10.669-48.227-16.054-97.511-16.054-146.795v-251.805c0-28.936 23.585-52.521 52.521-52.521h87.866c28.936 0 52.521 23.585 52.521 52.521v80.367h525.015v-80.367c0-28.936 23.585-52.521 52.521-52.521h87.866c28.903 0 52.521 23.585 52.521 52.521v252.862c0 49.317-5.384 98.601-16.087 146.795h18.201c28.936 0 52.521 23.585 52.521 52.521v29.993c-2.147 27.879-25.732 51.431-54.668 51.431zM310.173 558.724l50.374 156.441c8.588 25.732 32.14 42.876 57.873 42.876h379.309c26.756 0 50.374-17.177 57.873-42.876l50.341-156.441c2.147-7.498-3.204-13.907-10.702-13.907h-574.332c-7.498-1.090-12.883 6.408-10.735 13.907zM419.51 302.658h-106.1c-18.234 0-32.14 13.907-32.14 32.14v50.341c0 19.291 18.201 35.345 37.492 32.14l98.568-16.054c12.883-2.147 23.585-11.793 26.789-24.642l7.498-34.287c4.294-20.381-10.702-39.639-32.14-39.639zM933.822 334.798c0-18.234-13.94-32.14-32.173-32.14h-106.034c-20.381 0-35.378 19.258-31.116 38.549l7.498 34.287c3.237 12.883 12.883 22.528 26.789 24.642l98.601 16.087c19.291 3.204 37.492-11.793 37.492-32.14v-49.284h-1.057z" />
<glyph unicode="&#xe956;" glyph-name="uniE956" horiz-adv-x="1069" d="M159.076 477.295l155.069-112.64c17.72-12.911 25.155-35.706 18.387-56.543l-59.214-182.361c-15.137-46.57 38.155-85.304 77.779-56.543l155.069 112.685c17.72 12.911 41.717 12.911 59.437 0l155.069-112.64c39.624-28.806 92.961 9.928 77.824 56.543l-59.214 182.317c-6.812 20.836 0.623 43.631 18.343 56.543l155.069 112.64c39.624 28.761 19.278 91.448-29.696 91.448h-191.711c-21.905 0-41.316 14.113-48.083 34.95l-59.214 182.227c-15.137 46.614-81.030 46.614-96.167 0l-59.347-182.227c-6.723-20.836-26.090-34.95-48.039-34.95h-191.666c-48.974 0-69.276-62.687-29.696-91.448z" />
<glyph unicode="&#xe957;" glyph-name="uniE957" horiz-adv-x="1069" d="M159.076 477.295l155.069-112.64c17.72-12.911 25.155-35.706 18.387-56.543l-59.214-182.361c-15.137-46.57 38.155-85.304 77.779-56.543l155.069 112.685c17.72 12.911 41.717 12.911 59.437 0l155.069-112.64c39.624-28.806 92.961 9.928 77.824 56.543l-59.214 182.317c-6.812 20.836 0.623 43.631 18.343 56.543l155.069 112.64c39.624 28.761 19.278 91.448-29.696 91.448h-191.711c-21.905 0-41.316 14.113-48.083 34.95l-59.214 182.227c-15.137 46.614-81.030 46.614-96.167 0l-59.347-182.227c-6.723-20.836-26.090-34.95-48.039-34.95h-191.666c-48.974 0-69.276-62.687-29.696-91.448z" />
<glyph unicode="&#xe958;" glyph-name="uniE958" horiz-adv-x="1057" d="M869.838 629.677h-154.129v77.064c0 42.777-34.321 77.097-77.097 77.097h-154.129c-42.777 0-77.097-34.321-77.097-77.097v-77.064h-154.129c-42.777 0-76.701-34.287-76.701-77.064l-0.396-423.936c0-42.777 34.321-77.064 77.097-77.064h616.58c42.777 0 77.097 34.287 77.097 77.064v423.936c0 42.777-34.321 77.064-77.097 77.064zM638.613 629.677h-154.129v77.064h154.129v-77.064z" />
<glyph unicode="&#xe959;" glyph-name="uniE959" horiz-adv-x="1057" d="M869.838 629.677h-154.129v77.064c0 42.777-34.321 77.097-77.097 77.097h-154.129c-42.777 0-77.097-34.321-77.097-77.097v-77.064h-154.129c-42.777 0-76.701-34.287-76.701-77.064l-0.396-423.936c0-42.777 34.321-77.064 77.097-77.064h616.58c42.777 0 77.097 34.287 77.097 77.064v423.936c0 42.777-34.321 77.064-77.097 77.064zM638.613 629.677h-154.129v77.064h154.129v-77.064z" />
<glyph unicode="&#xe95a;" glyph-name="swap-horiz" horiz-adv-x="1317" d="M291.84 521.143l-291.84-292.571 291.84-292.571v219.429h512.731v146.286h-512.731v219.429zM1316.571 667.429l-291.84 292.571v-219.429h-512.731v-146.286h512.731v-219.429l291.84 292.571z" />
<glyph unicode="&#xe95b;" glyph-name="timer" d="M511.545 922.055c-261.689 0-473.6-212.366-473.6-474.055s211.911-474.055 473.6-474.055c262.144 0 474.51 212.366 474.51 474.055s-212.366 474.055-474.51 474.055zM512 68.722c-209.522 0-379.278 169.756-379.278 379.278s169.756 379.278 379.278 379.278 379.278-169.756 379.278-379.278-169.756-379.278-379.278-379.278zM535.723 685.056h-71.111v-284.444l248.889-149.333 35.556 58.311-213.333 126.578z" />
<glyph unicode="&#xe95c;" glyph-name="tv" horiz-adv-x="1073" d="M972.215 147.87h-871.619c-18.53 0-33.548 15.116-33.548 33.646v494.104c0 18.53 15.019 33.694 33.548 33.694h871.619c18.481 0 33.499-15.116 33.499-33.646v-494.056c0-18.53-15.019-33.646-33.548-33.646zM575.049 13.141h-77.336l11.215 67.34h54.955l11.166-67.34zM972.215 776.655h-176.128l121.563 122.1c13.117 13.166 13.117 34.475 0 47.64-13.068 13.166-34.28 13.166-47.397 0l-155.063-155.843-110.397 110.933c-13.117 13.166-34.328 13.166-47.397 0-13.117-13.166-13.117-34.475 0-47.64l76.849-77.19h-533.65c-55.491 0-100.596-45.349-100.596-101.083v-494.007c0-55.735 45.105-101.083 100.596-101.083h340.358l-11.215-67.34h-250.88c-18.53 0-33.548-15.116-33.548-33.646 0-18.627 15.019-33.743 33.548-33.743h715.142c18.53 0 33.548 15.116 33.548 33.694 0 18.627-15.019 33.646-33.548 33.646h-250.978l-11.166 67.389h340.358c55.491 0 100.596 45.349 100.596 101.083v494.007c0 55.735-45.105 101.083-100.596 101.083zM491.666 563.322h-178.761c-18.53 0-33.548-15.116-33.548-33.694s15.019-33.646 33.548-33.646h55.881v-190.903c0-18.627 14.97-33.694 33.499-33.694s33.548 15.116 33.548 33.646v190.952h55.832c18.53 0 33.548 15.116 33.548 33.694s-15.019 33.646-33.548 33.646zM772.291 560.884c-17.115 6.827-36.669-1.56-43.544-18.773l-58.27-146.286-58.27 146.286c-6.875 17.359-26.429 25.6-43.544 18.773-17.213-6.875-25.6-26.526-18.725-43.739l89.429-224.597c0-0.146 0.146-0.244 0.195-0.39 0.341-0.731 0.829-1.268 1.17-1.95 1.463-2.926 3.218-5.608 5.364-7.948 0.78-0.829 1.707-1.56 2.633-2.341 2.292-1.999 4.779-3.657 7.558-4.974 0.634-0.293 1.073-0.926 1.755-1.17 0.39-0.146 0.78-0.049 1.122-0.244 3.657-1.268 7.412-2.146 11.313-2.146s7.656 0.878 11.215 2.146c0.439 0.195 0.829 0.098 1.219 0.244 0.731 0.293 1.17 0.878 1.853 1.219 2.682 1.317 5.12 2.926 7.412 4.876 0.975 0.78 1.902 1.56 2.731 2.438 2.097 2.292 3.803 4.925 5.266 7.802 0.341 0.731 0.878 1.317 1.219 2.048 0 0.146 0.146 0.244 0.195 0.39l89.429 224.597c6.827 17.213-1.463 36.864-18.725 43.739z" />
<glyph unicode="&#xe95d;" glyph-name="wifi" horiz-adv-x="1536" d="M64 640l128-128c318.123 318.123 833.963 318.123 1152 0l128 128c-388.523 388.523-1018.88 388.523-1408 0zM576 128l192-192 192 192c-105.643 106.24-277.76 106.24-384 0zM320 384l128-128c176.64 176.64 463.36 176.64 640 0l128 128c-247.040 247.040-648.363 247.040-896 0z" />
<glyph unicode="&#xe95e;" glyph-name="work" horiz-adv-x="1078" d="M934.157 717.474h-197.578v98.789c0 54.865-43.978 98.843-98.843 98.843h-197.578c-54.865 0-98.843-43.978-98.843-98.843v-98.789h-197.578c-54.865 0-98.304-43.978-98.304-98.789l-0.539-543.475c0-54.811 43.978-98.789 98.843-98.789h790.42c54.865 0 98.843 43.978 98.843 98.789v543.475c0 54.811-43.978 98.789-98.843 98.789zM637.736 717.474h-197.578v98.789h197.578v-98.789z" />
<glyph unicode="&#xe95f;" glyph-name="group" horiz-adv-x="1536" d="M1024 512c106.24 0 191.36 85.76 191.36 192s-85.12 192-191.36 192c-106.24 0-192-85.76-192-192s85.76-192 192-192v0zM512 512c106.24 0 191.36 85.76 191.36 192s-85.12 192-191.36 192c-106.24 0-192-85.76-192-192s85.76-192 192-192v0zM512 384c-149.12 0-448-74.88-448-224v-160h896v160c0 149.12-298.88 224-448 224v0zM1024 384c-18.56 0-39.68-1.28-62.080-3.2 74.24-53.76 126.080-126.080 126.080-220.8v-160h384v160c0 149.12-298.88 224-448 224v0z" />
<glyph unicode="&#xe960;" glyph-name="location" horiz-adv-x="731" d="M365.714 935.619c-188.709 0-341.333-152.625-341.333-341.333 0-256 341.333-633.905 341.333-633.905s341.333 377.905 341.333 633.905c0 188.709-152.625 341.333-341.333 341.333v0zM365.714 472.381c-67.291 0-121.905 54.613-121.905 121.905s54.613 121.905 121.905 121.905c67.291 0 121.905-54.613 121.905-121.905s-54.613-121.905-121.905-121.905v0z" />
<glyph unicode="&#xe961;" glyph-name="room" horiz-adv-x="1170" d="M553.143 588.138l-416-229.971v215.050l416 229.975v-215.054zM1033.143 358.167l-416 229.971v215.054l416-229.975v-215.050zM585.143 75.118l-416.036 229.999 416.036 229.999 416.036-229.999-416.036-229.999zM1097.143 590.884c0 1.337-0.64 2.48-0.782 3.773-0.285 2.089-0.569 4.079-1.28 6.066-0.712 1.898-1.671 3.548-2.703 5.259-0.995 1.674-1.991 3.263-3.342 4.742-1.458 1.619-3.165 2.882-4.942 4.174-1.067 0.772-1.778 1.84-2.951 2.497l-480 265.355c-0.569 0.32-1.244 0.306-1.813 0.589-1.245 0.595-2.489 1.072-3.805 1.51-1.458 0.486-2.88 0.844-4.373 1.126-1.422 0.262-2.773 0.446-4.16 0.524-0.64 0.037-1.209 0.357-1.849 0.357s-1.209-0.32-1.849-0.357c-1.387-0.078-2.738-0.262-4.125-0.524-1.529-0.282-2.951-0.64-4.408-1.126-1.316-0.439-2.56-0.915-3.805-1.51-0.569-0.282-1.244-0.269-1.813-0.589l-480-265.355c-1.173-0.657-1.884-1.725-2.951-2.497-1.777-1.293-3.485-2.555-4.942-4.174-1.351-1.48-2.346-3.069-3.342-4.742-1.031-1.711-1.991-3.361-2.703-5.259-0.711-1.987-0.995-3.977-1.28-6.066-0.142-1.293-0.782-2.436-0.782-3.773v-285.767c0-0.65 0.355-1.194 0.391-1.834 0.071-1.344 0.285-2.609 0.568-3.94 0.285-1.405 0.64-2.711 1.102-4.062 0.498-1.306 0.96-2.514 1.636-3.732 0.284-0.565 0.249-1.187 0.604-1.742 0.249-0.456 0.818-0.616 1.102-1.055 0.818-1.235 1.671-2.358 2.702-3.477 1.458-1.616 3.165-2.882 4.942-4.174 1.067-0.772 1.778-1.84 2.951-2.497l0.214-0.123c0 0 0.035-0.007 0.035-0.010l479.751-265.223c0.036-0.020 0.071-0.010 0.142-0.031 3.698-2.034 7.965-2.657 12.232-3.147 1.208-0.136 2.382-0.929 3.591-0.929h0.072c1.208 0 2.382 0.793 3.591 0.929 4.267 0.49 8.534 1.112 12.232 3.147 0.071 0.020 0.106 0.010 0.142 0.031l479.751 265.223c0 0.003 0.035 0.010 0.035 0.010l0.214 0.123c1.173 0.657 1.884 1.725 2.951 2.497 1.777 1.293 3.485 2.558 4.942 4.174 1.031 1.119 1.884 2.242 2.702 3.477 0.285 0.439 0.854 0.599 1.102 1.055 0.355 0.555 0.32 1.177 0.64 1.742 0.64 1.218 1.102 2.426 1.6 3.732 0.462 1.351 0.818 2.657 1.102 4.062 0.284 1.33 0.497 2.596 0.568 3.94 0.036 0.64 0.391 1.184 0.391 1.834v285.767z" />
<glyph unicode="&#xe962;" glyph-name="speedometer" d="M205.617 448h102.128c0 112.749 91.779 204.255 204.255 204.255 56.102 0 107.847-22.877 144.068-60.187l72.443 72.443c-55.285 55.557-131.813 89.872-216.511 89.872-169.123 0-306.383-137.26-306.383-306.383zM512 958.638c-281.872 0-510.638-228.221-510.638-510.638 0-281.872 228.766-510.638 510.638-510.638s510.638 228.766 510.638 510.638c0 282.417-228.766 510.638-510.638 510.638zM614.128 294.945c0 8.715-1.089 17.702-3.54 26.145l193.634 192.272c19.881 19.881 20.153 52.289 0.272 72.17s-52.289 20.153-72.17 0.272l-193.634-192.272c-41.94 11.711-89.872-4.63-115.472-47.66-9.26-15.523-13.345-33.226-13.345-50.928h-276.153c-19.336 47.387-30.23 99.132-30.23 153.055 0 225.226 183.285 408.511 408.511 408.511s408.511-183.285 408.511-408.511c0-54.196-10.621-105.668-30.23-153.055h-276.153z" />
<glyph unicode="&#xe963;" glyph-name="tick2" horiz-adv-x="1126" d="M357.964 211.281l-267.033 254.74-90.931-86.135 357.964-341.486 768.436 733.065-90.291 86.135z" />
<glyph unicode="&#xe964;" glyph-name="transmission" horiz-adv-x="1170" d="M793.654-63.599c-75.693 5.584-135.368 68.765-135.368 145.884 0 54.144 29.416 101.418 73.138 126.712l0.005 165.859h-292.571l0.079-165.902c40.717-23.587 69.010-66.244 72.662-115.752l0.402-10.917c0-80.791-65.494-146.286-146.286-146.286v0l-10.917 0.401c-75.693 5.584-135.368 68.765-135.368 145.884 0 54.144 29.416 101.418 73.138 126.712l0.005 165.859h-146.286c-40.395 0-73.143 32.747-73.143 73.143l-0.005 239.002c-43.722 25.294-73.138 72.568-73.138 126.712 0 80.791 65.494 146.286 146.286 146.286s146.286-65.494 146.286-146.286c0-54.114-29.383-101.365-73.064-126.67l-0.079-165.902h292.571l-0.005 165.859c-40.757 23.579-69.082 66.256-72.736 115.795l-0.402 10.917c0 80.791 65.494 146.286 146.286 146.286s146.286-65.494 146.286-146.286c0-54.114-29.383-101.365-73.064-126.67l-0.079-165.902h292.571l-0.005 165.859c-40.757 23.579-69.082 66.256-72.736 115.795l-0.402 10.917c0 80.791 65.494 146.286 146.286 146.286s146.286-65.494 146.286-146.286c0-54.114-29.383-101.365-73.064-126.67l-0.079-239.045c0-40.396-32.748-73.143-73.143-73.143h-146.286l0.079-165.902c40.717-23.587 69.010-66.244 72.662-115.752l0.402-10.917c0-80.791-65.494-146.286-146.286-146.286v0z" />
<glyph unicode="&#xe965;" glyph-name="arrow" horiz-adv-x="1638" d="M51.2 533.299h1209.139l-305.459 306.381 120.32 120.32 512-512-512-512-120.32 120.32 305.459 306.381h-1209.139z" />
<glyph unicode="&#xe966;" glyph-name="creditCard" horiz-adv-x="1317" d="M1184.914 960h-1053.257c-73.070 0-130.999-56.96-130.999-128l-0.658-768c0-71.040 58.587-128 131.657-128h1053.257c73.070 0 131.657 56.96 131.657 128v768c0 71.040-58.587 128-131.657 128v0zM1184.914 64h-1053.257v384h1053.257v-384zM1184.914 704h-1053.257v128h1053.257v-128z" />
<glyph unicode="&#xe967;" glyph-name="door" horiz-adv-x="1252" d="M129.649 471.616l354.612 341.478c38.951 37.508 118.568 69.624 172.65 69.624h502.335v-869.434h-927.538c-25.607 0-55.184 21.927-62.659 46.488l-78.981 259.51c-14.407 47.337 3.998 118.069 39.581 152.335zM16.133 296.779l78.981-259.51c17.377-57.094 76.964-101.269 136.594-101.269h966.179c21.341 0 38.642 17.3 38.642 38.642v946.717c0 21.341-17.3 38.642-38.642 38.642h-540.976c-74.078 0-172.908-39.865-226.257-91.238l-354.612-341.478c-56.516-54.423-82.78-155.358-59.909-230.505v0zM656.922 747.472h367.078v-289.811l-711.19-0.021 302.849 274.006c8.61 7.79 29.55 15.826 41.264 15.826zM563.808 788.954l-377.205-341.281c-26.224-23.727-9.439-67.296 25.925-67.296h850.113c21.341 0 38.642 17.3 38.642 38.642v367.094c0 21.341-17.3 38.642-38.642 38.642h-405.719c-30.84 0-70.267-15.13-93.114-35.801v0zM1062.642 322.415h-115.854c-21.341 0-38.642-17.3-38.642-38.642s17.3-38.642 38.642-38.642h115.854c21.341 0 38.642 17.3 38.642 38.642s-17.3 38.642-38.642 38.642v0z" />
<glyph unicode="&#xe968;" glyph-name="navigation" d="M512 960c-282.77 0-512-229.23-512-512s229.23-512 512-512c282.77 0 512 229.23 512 512-0.323 282.636-229.364 511.677-512 512zM512 0c-247.424 0-448 200.576-448 448s200.576 448 448 448c247.424 0 448-200.576 448-448-0.279-247.308-200.692-447.721-448-448zM754.595 733.046l-588.314-271.53c-11.608-5.355-18.916-17.104-18.586-29.883s8.234-24.136 20.103-28.885l213.546-85.405 85.405-213.533c4.753-11.872 16.109-19.782 28.893-20.125h0.826c12.481 0 23.821 7.262 29.050 18.595l271.53 588.314c5.604 12.168 3.034 26.54-6.439 36.012s-23.844 12.042-36.012 6.439zM498.595 196.595l-62.893 157.248c-3.258 8.132-9.698 14.578-17.827 17.843l-157.267 62.893 441.939 203.968-203.952-441.952z" />
<glyph unicode="&#xe969;" glyph-name="seater" horiz-adv-x="725" d="M510.756 915.867c-68 0-123.911-54.267-123.911-120.267s55.911-120.267 123.911-120.267c68 0 123.911 54.267 123.911 120.267s-55.911 120.267-123.911 120.267zM510.756 722.267c-40.8 0-75.556 32.267-75.556 73.333s33.244 73.333 75.556 73.333c42.311 0 75.556-32.267 75.556-73.333s-33.244-73.333-75.556-73.333zM226.667 675.333c68 0 123.911 54.267 123.911 120.267s-55.911 120.267-123.911 120.267c-68 0-123.911-54.267-123.911-120.267s55.911-120.267 123.911-120.267zM226.667 868.933c40.8 0 75.556-32.267 75.556-73.333s-33.244-73.333-75.556-73.333c-42.311 0-75.556 32.267-75.556 73.333s33.244 73.333 75.556 73.333zM716.267 531.6v-152.533c0-44-25.689-83.6-64.978-104.133v-199.467c0-52.8-43.822-93.867-96.711-93.867h-111.822c-13.6 0-24.178 10.267-24.178 23.467s10.578 23.467 24.178 23.467h111.822c27.2 0 49.867 22 49.867 48.4v212.667c0 10.267 6.044 19.067 15.111 22 28.711 10.267 48.356 38.133 48.356 67.467v152.533c0 39.6-33.244 71.867-74.044 71.867h-105.778c-13.6 0-24.178 10.267-24.178 23.467s10.578 23.467 24.178 23.467h105.778c68 0 122.4-52.8 122.4-118.8zM9.067 531.6v-152.533c0-44 25.689-83.6 64.978-104.133v-199.467c0-52.8 43.822-93.867 96.711-93.867h111.822c54.4 0 96.711 42.533 96.711 93.867v199.467c39.289 20.533 64.978 60.133 64.978 104.133v152.533c0 66-54.4 118.8-122.4 118.8h-190.4c-68 0-122.4-52.8-122.4-118.8zM57.422 531.6c0 39.6 33.244 71.867 74.044 71.867h190.4c40.8 0 74.044-32.267 74.044-71.867v-152.533c0-29.333-19.644-57.2-48.356-67.467-9.067-2.933-15.111-11.733-15.111-22v-215.6c0-26.4-22.667-48.4-49.867-48.4h-111.822c-27.2 0-49.867 22-49.867 48.4v215.6c0 10.267-6.044 19.067-15.111 22-28.711 10.267-48.356 38.133-48.356 67.467v152.533z" />
<glyph unicode="&#xe96a;" glyph-name="suitcase2" d="M128-64h768c70.692 0 128 57.308 128 128v554.667c0 70.692-57.308 128-128 128h-170.667v85.333c0 70.692-57.308 128-128 128h-170.667c-70.692 0-128-57.308-128-128v-85.333h-170.667c-70.692 0-128-57.308-128-128v-554.667c0-70.692 57.308-128 128-128zM896 21.333h-768c-23.564 0-42.667 19.103-42.667 42.667v298.667h298.667v-128c0-23.564 19.103-42.667 42.667-42.667h170.667c23.564 0 42.667 19.103 42.667 42.667v128h298.667v-298.667c0-23.564-19.103-42.667-42.667-42.667zM469.333 362.667h85.333v-85.333h-85.333v85.333zM384 832c0 23.564 19.103 42.667 42.667 42.667h170.667c23.564 0 42.667-19.103 42.667-42.667v-85.333h-256v85.333zM128 661.333h768c23.564 0 42.667-19.103 42.667-42.667v-170.667h-853.333v170.667c0 23.564 19.103 42.667 42.667 42.667z" />
<glyph unicode="&#xe96b;" glyph-name="gear" horiz-adv-x="1075" d="M966.077 814.946c-19.755 0-35.876 16.123-35.876 35.882 0 19.801 16.121 35.925 35.876 35.925 19.798 0 35.918-16.123 35.918-35.925 0-19.759-16.121-35.882-35.918-35.882zM680.44 814.946c-19.798 0-35.876 16.123-35.876 35.882 0 19.801 16.078 35.925 35.876 35.925s35.876-16.123 35.876-35.925c0-19.759-16.078-35.882-35.876-35.882zM680.44 9.29c-19.798 0-35.876 16.081-35.876 35.882s16.078 35.882 35.876 35.882c19.798 0 35.876-16.081 35.876-35.882s-16.078-35.882-35.876-35.882zM394.803 814.946c-19.798 0-35.876 16.123-35.876 35.882 0 19.801 16.078 35.925 35.876 35.925s35.876-16.123 35.876-35.925c0-19.759-16.078-35.882-35.876-35.882zM394.803 9.29c-19.798 0-35.876 16.081-35.876 35.882l0.043 2.096 0.043 0.641 0.171 1.497 0.086 0.684 0.214 1.454 0.128 0.599 0.428 2.010v0.043l0.556 1.882 0.214 0.599 0.47 1.369 0.257 0.599 0.599 1.369 0.214 0.47 0.941 1.796v0.043c6.072 11.162 17.916 18.732 31.514 18.732 14.325 0 26.682-8.425 32.455-20.571l0.214-0.47 0.599-1.369 0.214-0.599 0.513-1.411 0.171-0.513 1.026-3.977 0.128-0.599 0.214-1.454 0.086-0.684 0.128-1.497 0.086-0.641 0.043-2.096c0-19.801-16.078-35.882-35.876-35.882zM109.166 814.946c-19.798 0-35.918 16.123-35.918 35.882 0 19.801 16.121 35.925 35.918 35.925s35.876-16.123 35.876-35.925c0-19.759-16.078-35.882-35.876-35.882zM960.133 959.843c-56.187-3.036-101.213-49.054-103.137-105.251-1.625-48.969 29.162-91.095 72.478-106.577v-247.411c0-10.478-8.509-18.946-18.985-18.946h-174.461c-10.476 0-18.943 8.468-18.943 18.946v247.411c43.316 15.482 74.060 57.608 72.435 106.577-1.881 56.197-46.95 102.215-103.094 105.251-62.9 3.336-115.11-46.831-115.11-109.015 0-47.344 30.274-87.716 72.521-102.813v-247.411c0-10.478-8.509-18.946-18.985-18.946h-174.461c-10.476 0-18.985 8.468-18.985 18.946v247.411c43.316 15.482 74.103 57.608 72.478 106.577-1.924 56.197-46.95 102.215-103.094 105.251-62.9 3.336-115.11-46.831-115.11-109.015 0-47.344 30.274-87.716 72.478-102.813v-247.411c0-10.478-8.466-18.946-18.943-18.946h-174.461c-10.476 0-18.985 8.468-18.985 18.946v247.411c43.316 15.482 74.103 57.608 72.435 106.577-1.881 56.197-46.908 102.215-103.094 105.251-62.857 3.336-115.11-46.831-115.11-109.015 0-47.344 30.317-87.716 72.521-102.813v-303.008l0.214-3.764c1.881-18.433 17.446-32.846 36.432-32.846h230.049c10.476 0 18.943-8.511 18.943-18.989v-241.423c-43.316-15.482-74.060-57.608-72.435-106.577 1.881-56.197 46.95-102.215 103.094-105.251 62.9-3.336 115.11 46.831 115.11 109.015 0 47.344-30.274 87.716-72.521 102.813v241.423c0 10.478 8.509 18.989 18.985 18.989h174.461c10.476 0 18.985-8.511 18.985-18.989v-241.423c-43.359-15.482-74.103-57.608-72.478-106.577 1.924-56.197 46.95-102.215 103.094-105.251 62.9-3.336 115.11 46.831 115.11 109.015 0 47.344-30.274 87.716-72.478 102.813v241.423c0 10.478 8.466 18.989 18.943 18.989h230.049c18.985 0 34.55 14.413 36.432 32.846l0.214 3.764v303.008c42.204 15.097 72.478 55.47 72.478 102.813 0 62.184-52.21 112.351-115.067 109.015v0z" />
<glyph unicode="&#xe96c;" glyph-name="verified-user" d="M512 917.333l-384-170.667v-256c0-236.8 163.84-458.24 384-512 220.16 53.76 384 275.2 384 512v256l-384 170.667zM426.667 234.667l-170.667 170.667 60.16 60.16 110.507-110.080 281.173 281.173 60.16-60.587-341.333-341.333z" />
<glyph unicode="&#xe96d;" glyph-name="minus" d="M213.333 384h597.333c23.552 0 42.667 19.115 42.667 42.667s-19.115 42.667-42.667 42.667h-597.333c-23.552 0-42.667-19.115-42.667-42.667s19.115-42.667 42.667-42.667z" />
</font>
</defs>
</svg>
