<svg width="30" height="30" xmlns="http://www.w3.org/2000/svg">
    <g fill="none" fill-rule="evenodd">
        <path d="m14.97.828 14.143 14.143L14.97 29.113.828 14.97z"/>
        <path d="m18.506 12.614-1.178-1.179-2.357 2.357-2.357-2.357-1.179 1.179 2.357 2.357-2.357 2.357 1.179 1.178 2.357-2.357 2.357 2.357 1.178-1.178-2.357-2.357 2.357-2.357zm2.357-3.536a8.336 8.336 0 0 0-11.785 0 8.336 8.336 0 0 0 0 11.785 8.336 8.336 0 0 0 11.785 0 8.336 8.336 0 0 0 0-11.785zM10.257 19.685a6.676 6.676 0 0 1 0-9.428 6.676 6.676 0 0 1 9.428 0 6.676 6.676 0 0 1 0 9.428 6.676 6.676 0 0 1-9.428 0z" fill="#0BE2CE"/>
    </g>
</svg>
